<svg width="144" height="105" viewBox="0 0 144 105" fill="none" xmlns="http://www.w3.org/2000/svg">
<path d="M93.7566 10.8892H50.1839C46.9207 10.8892 44.2754 13.5345 44.2754 16.7977V60.3704C44.2754 63.6336 46.9207 66.2789 50.1839 66.2789H93.7566C97.0198 66.2789 99.6651 63.6336 99.6651 60.3704V16.7977C99.6651 13.5345 97.0198 10.8892 93.7566 10.8892Z" fill="#BC70C4"/>
<path d="M99.6746 24.7246H85.8394V38.5891H99.6746V24.7246Z" fill="white"/>
<path d="M71.9846 38.5889H58.1201V52.4534H71.9846V38.5889Z" fill="white"/>
<path d="M44.2559 52.4438H58.1204V66.3083H50.1644C46.9079 66.3083 44.2559 63.6563 44.2559 60.3998V52.4438Z" fill="white"/>
<path d="M85.8494 10.8604H71.9849V24.7249H85.8494V10.8604Z" fill="white"/>
<path d="M93.766 9.41698H50.1932C46.1177 9.41698 42.8125 12.732 42.8125 16.8075V60.3802C42.8125 64.4557 46.1275 67.7707 50.1932 67.7707H93.766C97.8415 67.7707 101.157 64.4557 101.157 60.3802V16.7977C101.157 12.7222 97.8415 9.40723 93.766 9.40723V9.41698ZM98.2023 16.8075V23.262H87.3018V12.381H93.7758C96.223 12.381 98.212 14.37 98.212 16.8075H98.2023ZM84.3475 26.2162V37.1265H45.7667V26.2162H84.3475ZM73.4567 23.262V12.381H84.3475V23.262H73.4567ZM45.7667 40.0807H56.6575V50.991H45.7667V40.0807ZM59.6117 40.0807H70.5025V50.991H59.6117V40.0807ZM73.4567 40.0807H98.2023V50.991H73.4567V40.0807ZM98.2023 37.1265H87.3018V26.2162H98.2023V37.1265ZM50.1835 12.3712H70.4928V23.2522H45.757V16.7977C45.757 14.3505 47.746 12.3712 50.1835 12.3712ZM45.757 60.3802V53.9257H56.6477V64.8067H50.1932C47.746 64.8067 45.7667 62.8177 45.7667 60.3802H45.757ZM93.766 64.8067H59.602V53.9257H98.1925V60.3802C98.1925 62.8275 96.2035 64.8067 93.7562 64.8067H93.766Z" fill="black"/>
<path d="M25.5845 93.9301C25.214 98.5126 22.8545 99.9946 19.9782 99.9946C16.127 99.9946 13.397 97.6546 13.397 91.1513C13.397 85.5743 15.7857 82.2788 18.9252 82.2788C20.1927 82.2788 21.2165 82.5518 22.1427 83.2343V82.6298H25.0385V88.7236H21.9672C21.9672 86.9686 21.6552 85.6036 20.144 85.6036C18.8277 85.6036 18.1745 87.1148 18.1745 90.9856C18.1745 95.6168 18.9057 96.5918 20.1732 96.5918C21.0995 96.5918 21.6845 95.7631 21.8795 93.9398H25.5845V93.9301Z" fill="black"/>
<path d="M36.5044 93.9106C36.5044 98.2688 34.5252 100.004 31.3369 100.004C28.1487 100.004 26.1694 98.2493 26.1694 93.9106C26.1694 89.5718 28.0902 87.7681 31.3369 87.7681C34.5837 87.7681 36.5044 89.7181 36.5044 93.9106ZM32.5069 93.8618C32.5069 91.5023 32.2924 90.6443 31.3369 90.6443C30.3814 90.6443 30.1474 91.5023 30.1474 93.8618C30.1474 95.9288 30.2449 97.1281 31.3369 97.1281C32.4289 97.1281 32.5069 95.9386 32.5069 93.8618Z" fill="black"/>
<path d="M49.501 99.7114H44.4602V91.9407C44.4602 91.3069 44.0897 90.8487 43.4072 90.8487C42.6565 90.8487 42.2665 91.4337 42.2665 92.3307V97.0107H43.2902V99.7114H37.3232V97.0107H38.347V90.7707H37.3232V88.0699H42.0227V89.5324C42.3445 89.0157 43.1732 87.8262 45.1622 87.8262C47.278 87.8262 48.448 89.4544 48.448 91.4824V97.0107H49.501V99.7114Z" fill="black"/>
<path d="M62.3711 99.7114H57.3304V91.9407C57.3304 91.3069 56.9696 90.8487 56.2871 90.8487C55.5364 90.8487 55.1464 91.4337 55.1464 92.3307V97.0107H56.1701V99.7114H50.2031V97.0107H51.2269V90.7707H50.2031V88.0699H54.9026V89.5324C55.2146 89.0157 56.0434 87.8262 58.0421 87.8262C60.1579 87.8262 61.3279 89.4544 61.3279 91.4824V97.0107H62.3711V99.7114Z" fill="black"/>
<path d="M72.9013 93.9593C72.9013 94.2518 72.8818 94.6418 72.8525 94.9343H66.7588C66.7588 96.7868 67.1488 97.3913 68.1238 97.3913C68.8258 97.3913 69.2938 96.9818 69.5083 96.0946H72.8233C72.1895 98.7466 70.6003 99.9946 68.0945 99.9946C64.877 99.9946 62.7808 98.6491 62.7808 93.8813C62.7808 89.3768 65.189 87.7681 67.9483 87.7681C70.7075 87.7681 72.8915 89.4256 72.8915 93.9593H72.9013ZM69.1475 93.1501V92.8381C69.1475 91.4536 68.9818 90.4493 67.958 90.4493C66.7685 90.4493 66.7685 91.7168 66.7393 93.1501H69.1475Z" fill="black"/>
<path d="M83.207 95.7338C82.9145 98.5808 81.2082 99.9946 78.8195 99.9946C75.8262 99.9946 73.73 98.3858 73.73 93.8813C73.73 90.0301 75.4557 87.7681 77.9225 87.7681C78.8195 87.7681 79.775 87.9338 80.3112 88.4018L80.282 88.0606H82.7877V92.4676H80.2527C80.2527 91.3756 80.009 90.5176 78.9852 90.5176C78.0785 90.5176 77.669 91.4633 77.669 93.8813C77.669 96.7771 78.137 97.3913 79.0145 97.3913C79.619 97.3913 80.087 96.8746 80.204 95.7338H83.1972H83.207Z" fill="black"/>
<path d="M90.2561 99.7113H84.6986V90.7706H83.7041V88.0698H84.6986V84.1211H88.6181V88.0698H90.2464V90.7706H88.6181V97.0106H90.2464V99.7113H90.2561Z" fill="black"/>
<path d="M97.1985 99.7114H91.251V97.0107H92.2747V90.7707H91.251V88.0699H96.1942V97.0107H97.1887V99.7114H97.1985ZM96.204 86.5782H92.2357V82.9512H96.204V86.5782Z" fill="black"/>
<path d="M108.001 93.9106C108.001 98.2688 106.022 100.004 102.834 100.004C99.6453 100.004 97.666 98.2493 97.666 93.9106C97.666 89.5718 99.5868 87.7681 102.834 87.7681C106.08 87.7681 108.001 89.7181 108.001 93.9106ZM104.004 93.8618C104.004 91.5023 103.789 90.6443 102.834 90.6443C101.878 90.6443 101.644 91.5023 101.644 93.8618C101.644 95.9288 101.742 97.1281 102.834 97.1281C103.926 97.1281 104.004 95.9386 104.004 93.8618Z" fill="black"/>
<path d="M120.842 99.7114H115.801V91.9407C115.801 91.3069 115.431 90.8487 114.758 90.8487C113.997 90.8487 113.617 91.4337 113.617 92.3307V97.0107H114.641V99.7114H108.674V97.0107H109.698V90.7707H108.674V88.0699H113.373V89.5324C113.695 89.0157 114.514 87.8262 116.513 87.8262C118.629 87.8262 119.808 89.4544 119.808 91.4824V97.0107H120.852V99.7114H120.842Z" fill="black"/>
<path d="M130.543 96.1238C130.543 98.6101 128.934 99.9946 126.624 99.9946C125.571 99.9946 124.849 99.7801 123.874 99.1658V99.7021H121.437V95.6851H123.972C123.972 96.8258 124.235 97.6058 125.434 97.6058C126.019 97.6058 126.604 97.3621 126.604 96.5821C126.604 96.0166 126.234 95.7046 125.727 95.4901L123.679 94.6126C122.392 94.0471 121.632 92.9356 121.632 91.4438C121.632 89.2306 123.27 87.7681 125.454 87.7681C126.312 87.7681 126.965 88.0118 127.647 88.4506V88.0606H130.104V91.6876H127.599C127.599 90.8783 127.647 89.9033 126.604 89.9033C126.019 89.9033 125.551 90.2933 125.551 90.9271C125.551 91.4438 125.892 91.8046 126.429 92.0483L128.349 92.8966C129.695 93.4816 130.543 94.4761 130.543 96.1141V96.1238Z" fill="black"/>
</svg>
