<svg width="234" height="27" viewBox="0 0 234 27" fill="none" xmlns="http://www.w3.org/2000/svg">
<mask id="path-1-outside-1_702_35680" maskUnits="userSpaceOnUse" x="116" y="1" width="118" height="26" fill="black">
<rect fill="white" x="116" y="1" width="118" height="26"/>
<path d="M117.485 5.664H116.405V2.073H124.775V5.664H123.209L125.45 14.061H125.477L128.933 2.073H133.037L136.493 14.385H136.547L138.923 5.664H137.357V2.073H143.378V5.664H142.379L138.005 21H132.848L130.013 10.497H129.959L127.043 21H121.886L117.485 5.664ZM142.912 17.895H144.154V11.226H142.885V8.148H149.122V10.227C150.04 8.904 151.417 7.824 153.226 7.824C153.388 7.824 153.658 7.851 153.874 7.851V11.739C152.983 11.712 152.497 11.712 151.957 11.82C151.039 11.901 150.202 12.306 149.716 13.008C149.311 13.602 149.176 14.331 149.176 15.627V17.895H150.661V21H142.912V17.895ZM158.677 21.27C155.869 21.27 154.141 19.623 154.141 16.923C154.141 14.196 156.112 12.468 159.136 12.468C160.621 12.468 161.836 12.954 162.673 13.629V13.305C162.619 11.685 161.512 10.686 159.433 10.686C157.975 10.686 156.706 11.064 155.464 11.712V8.688C157.003 8.202 158.65 7.851 160.945 7.851C165.94 7.851 167.722 10.173 167.722 12.414V17.895H169.045V21H162.727V19.515C161.836 20.757 160.297 21.27 158.677 21.27ZM160.918 18.408C162.052 18.408 162.781 17.814 162.781 16.68C162.781 15.573 162.052 14.925 160.945 14.925C159.811 14.925 159.001 15.573 159.001 16.68C159.001 17.814 159.757 18.408 160.918 18.408ZM169.807 22.836H171.076V11.226H169.807V8.148H176.071V9.498C177.367 8.391 178.555 7.851 180.013 7.851C183.442 7.851 185.521 11.037 185.521 14.574C185.521 18.678 182.902 21.324 179.932 21.324C178.555 21.324 177.34 20.757 176.071 19.65V22.836H177.286V25.914H169.807V22.836ZM180.499 14.655C180.499 12.792 179.986 10.983 178.285 10.983C176.908 10.983 176.071 12.279 176.071 14.439C176.071 16.545 176.8 18.111 178.312 18.111C179.851 18.111 180.499 16.545 180.499 14.655ZM186.315 22.836H187.584V11.226H186.315V8.148H192.579V9.498C193.875 8.391 195.063 7.851 196.521 7.851C199.95 7.851 202.029 11.037 202.029 14.574C202.029 18.678 199.41 21.324 196.44 21.324C195.063 21.324 193.848 20.757 192.579 19.65V22.836H193.794V25.914H186.315V22.836ZM197.007 14.655C197.007 12.792 196.494 10.983 194.793 10.983C193.416 10.983 192.579 12.279 192.579 14.439C192.579 16.545 193.308 18.111 194.82 18.111C196.359 18.111 197.007 16.545 197.007 14.655ZM216.886 16.977C216.022 19.92 213.403 21.324 210.406 21.324C208.408 21.324 206.518 20.784 205.195 19.542C203.872 18.273 203.17 16.545 203.17 14.52C203.17 10.389 206.248 7.851 210.082 7.851C213.997 7.851 216.913 10.713 216.913 14.79C216.913 15.114 216.886 15.411 216.859 15.735H208.219C208.354 17.517 209.38 18.381 210.838 18.381C212.026 18.381 212.782 17.841 213.187 16.977H216.886ZM208.597 12.009C208.327 12.468 208.219 13.035 208.192 13.791H212.377V13.629C212.269 12.144 211.702 10.983 210.298 10.983C209.542 10.983 208.948 11.334 208.597 12.009ZM217.754 14.547C217.754 10.794 219.914 7.851 223.397 7.851C224.909 7.851 226.097 8.418 227.177 9.444V5.151H225.719V2.073H232.172V17.922H233.495V21H227.204V19.623C226.07 20.676 224.909 21.324 223.289 21.324C219.806 21.324 217.754 18.246 217.754 14.547ZM227.258 14.412C227.258 12.738 226.556 10.983 225.017 10.983C223.451 10.983 222.749 12.711 222.749 14.547C222.749 16.329 223.397 18.111 225.017 18.111C226.664 18.111 227.258 16.059 227.258 14.412Z"/>
</mask>
<path d="M117.485 5.664H116.405V2.073H124.775V5.664H123.209L125.45 14.061H125.477L128.933 2.073H133.037L136.493 14.385H136.547L138.923 5.664H137.357V2.073H143.378V5.664H142.379L138.005 21H132.848L130.013 10.497H129.959L127.043 21H121.886L117.485 5.664ZM142.912 17.895H144.154V11.226H142.885V8.148H149.122V10.227C150.04 8.904 151.417 7.824 153.226 7.824C153.388 7.824 153.658 7.851 153.874 7.851V11.739C152.983 11.712 152.497 11.712 151.957 11.82C151.039 11.901 150.202 12.306 149.716 13.008C149.311 13.602 149.176 14.331 149.176 15.627V17.895H150.661V21H142.912V17.895ZM158.677 21.27C155.869 21.27 154.141 19.623 154.141 16.923C154.141 14.196 156.112 12.468 159.136 12.468C160.621 12.468 161.836 12.954 162.673 13.629V13.305C162.619 11.685 161.512 10.686 159.433 10.686C157.975 10.686 156.706 11.064 155.464 11.712V8.688C157.003 8.202 158.65 7.851 160.945 7.851C165.94 7.851 167.722 10.173 167.722 12.414V17.895H169.045V21H162.727V19.515C161.836 20.757 160.297 21.27 158.677 21.27ZM160.918 18.408C162.052 18.408 162.781 17.814 162.781 16.68C162.781 15.573 162.052 14.925 160.945 14.925C159.811 14.925 159.001 15.573 159.001 16.68C159.001 17.814 159.757 18.408 160.918 18.408ZM169.807 22.836H171.076V11.226H169.807V8.148H176.071V9.498C177.367 8.391 178.555 7.851 180.013 7.851C183.442 7.851 185.521 11.037 185.521 14.574C185.521 18.678 182.902 21.324 179.932 21.324C178.555 21.324 177.34 20.757 176.071 19.65V22.836H177.286V25.914H169.807V22.836ZM180.499 14.655C180.499 12.792 179.986 10.983 178.285 10.983C176.908 10.983 176.071 12.279 176.071 14.439C176.071 16.545 176.8 18.111 178.312 18.111C179.851 18.111 180.499 16.545 180.499 14.655ZM186.315 22.836H187.584V11.226H186.315V8.148H192.579V9.498C193.875 8.391 195.063 7.851 196.521 7.851C199.95 7.851 202.029 11.037 202.029 14.574C202.029 18.678 199.41 21.324 196.44 21.324C195.063 21.324 193.848 20.757 192.579 19.65V22.836H193.794V25.914H186.315V22.836ZM197.007 14.655C197.007 12.792 196.494 10.983 194.793 10.983C193.416 10.983 192.579 12.279 192.579 14.439C192.579 16.545 193.308 18.111 194.82 18.111C196.359 18.111 197.007 16.545 197.007 14.655ZM216.886 16.977C216.022 19.92 213.403 21.324 210.406 21.324C208.408 21.324 206.518 20.784 205.195 19.542C203.872 18.273 203.17 16.545 203.17 14.52C203.17 10.389 206.248 7.851 210.082 7.851C213.997 7.851 216.913 10.713 216.913 14.79C216.913 15.114 216.886 15.411 216.859 15.735H208.219C208.354 17.517 209.38 18.381 210.838 18.381C212.026 18.381 212.782 17.841 213.187 16.977H216.886ZM208.597 12.009C208.327 12.468 208.219 13.035 208.192 13.791H212.377V13.629C212.269 12.144 211.702 10.983 210.298 10.983C209.542 10.983 208.948 11.334 208.597 12.009ZM217.754 14.547C217.754 10.794 219.914 7.851 223.397 7.851C224.909 7.851 226.097 8.418 227.177 9.444V5.151H225.719V2.073H232.172V17.922H233.495V21H227.204V19.623C226.07 20.676 224.909 21.324 223.289 21.324C219.806 21.324 217.754 18.246 217.754 14.547ZM227.258 14.412C227.258 12.738 226.556 10.983 225.017 10.983C223.451 10.983 222.749 12.711 222.749 14.547C222.749 16.329 223.397 18.111 225.017 18.111C226.664 18.111 227.258 16.059 227.258 14.412Z" fill="black"/>
<path d="M117.485 5.664L117.657 5.61454L117.62 5.48469H117.485V5.664ZM116.405 5.664H116.226V5.84331H116.405V5.664ZM116.405 2.073V1.89369H116.226V2.073H116.405ZM124.775 2.073H124.954V1.89369H124.775V2.073ZM124.775 5.664V5.84331H124.954V5.664H124.775ZM123.209 5.664V5.48469H122.976L123.036 5.71024L123.209 5.664ZM125.45 14.061L125.277 14.1072L125.312 14.2403H125.45V14.061ZM125.477 14.061V14.2403H125.612L125.649 14.1107L125.477 14.061ZM128.933 2.073V1.89369H128.798L128.761 2.02333L128.933 2.073ZM133.037 2.073L133.21 2.02454L133.173 1.89369H133.037V2.073ZM136.493 14.385L136.32 14.4335L136.357 14.5643H136.493V14.385ZM136.547 14.385V14.5643H136.684L136.72 14.4321L136.547 14.385ZM138.923 5.664L139.096 5.71113L139.158 5.48469H138.923V5.664ZM137.357 5.664H137.178V5.84331H137.357V5.664ZM137.357 2.073V1.89369H137.178V2.073H137.357ZM143.378 2.073H143.557V1.89369H143.378V2.073ZM143.378 5.664V5.84331H143.557V5.664H143.378ZM142.379 5.664V5.48469H142.244L142.207 5.61482L142.379 5.664ZM138.005 21V21.1793H138.14L138.177 21.0492L138.005 21ZM132.848 21L132.675 21.0467L132.711 21.1793H132.848V21ZM130.013 10.497L130.186 10.4503L130.15 10.3177H130.013V10.497ZM129.959 10.497V10.3177H129.823L129.786 10.449L129.959 10.497ZM127.043 21V21.1793H127.179L127.216 21.048L127.043 21ZM121.886 21L121.714 21.0495L121.751 21.1793H121.886V21ZM117.485 5.664V5.48469H116.405V5.664V5.84331H117.485V5.664ZM116.405 5.664H116.584V2.073H116.405H116.226V5.664H116.405ZM116.405 2.073V2.25231H124.775V2.073V1.89369H116.405V2.073ZM124.775 2.073H124.596V5.664H124.775H124.954V2.073H124.775ZM124.775 5.664V5.48469H123.209V5.664V5.84331H124.775V5.664ZM123.209 5.664L123.036 5.71024L125.277 14.1072L125.45 14.061L125.623 14.0148L123.382 5.61776L123.209 5.664ZM125.45 14.061V14.2403H125.477V14.061V13.8817H125.45V14.061ZM125.477 14.061L125.649 14.1107L129.105 2.12267L128.933 2.073L128.761 2.02333L125.305 14.0113L125.477 14.061ZM128.933 2.073V2.25231H133.037V2.073V1.89369H128.933V2.073ZM133.037 2.073L132.864 2.12146L136.32 14.4335L136.493 14.385L136.666 14.3365L133.21 2.02454L133.037 2.073ZM136.493 14.385V14.5643H136.547V14.385V14.2057H136.493V14.385ZM136.547 14.385L136.72 14.4321L139.096 5.71113L138.923 5.664L138.75 5.61687L136.374 14.3379L136.547 14.385ZM138.923 5.664V5.48469H137.357V5.664V5.84331H138.923V5.664ZM137.357 5.664H137.536V2.073H137.357H137.178V5.664H137.357ZM137.357 2.073V2.25231H143.378V2.073V1.89369H137.357V2.073ZM143.378 2.073H143.199V5.664H143.378H143.557V2.073H143.378ZM143.378 5.664V5.48469H142.379V5.664V5.84331H143.378V5.664ZM142.379 5.664L142.207 5.61482L137.833 20.9508L138.005 21L138.177 21.0492L142.551 5.71318L142.379 5.664ZM138.005 21V20.8207H132.848V21V21.1793H138.005V21ZM132.848 21L133.021 20.9533L130.186 10.4503L130.013 10.497L129.84 10.5437L132.675 21.0467L132.848 21ZM130.013 10.497V10.3177H129.959V10.497V10.6763H130.013V10.497ZM129.959 10.497L129.786 10.449L126.87 20.952L127.043 21L127.216 21.048L130.132 10.545L129.959 10.497ZM127.043 21V20.8207H121.886V21V21.1793H127.043V21ZM121.886 21L122.058 20.9505L117.657 5.61454L117.485 5.664L117.313 5.71346L121.714 21.0495L121.886 21ZM142.912 17.895V17.7157H142.733V17.895H142.912ZM144.154 17.895V18.0743H144.333V17.895H144.154ZM144.154 11.226H144.333V11.0467H144.154V11.226ZM142.885 11.226H142.706V11.4053H142.885V11.226ZM142.885 8.148V7.96869H142.706V8.148H142.885ZM149.122 8.148H149.301V7.96869H149.122V8.148ZM149.122 10.227H148.943V10.8L149.269 10.3292L149.122 10.227ZM153.874 7.851H154.053V7.67169H153.874V7.851ZM153.874 11.739L153.868 11.9182L154.053 11.9238V11.739H153.874ZM151.957 11.82L151.973 11.9986L151.982 11.9978L151.992 11.9958L151.957 11.82ZM149.716 13.008L149.568 12.9059L149.568 12.907L149.716 13.008ZM149.176 17.895H148.997V18.0743H149.176V17.895ZM150.661 17.895H150.84V17.7157H150.661V17.895ZM150.661 21V21.1793H150.84V21H150.661ZM142.912 21H142.733V21.1793H142.912V21ZM142.912 17.895V18.0743H144.154V17.895V17.7157H142.912V17.895ZM144.154 17.895H144.333V11.226H144.154H143.975V17.895H144.154ZM144.154 11.226V11.0467H142.885V11.226V11.4053H144.154V11.226ZM142.885 11.226H143.064V8.148H142.885H142.706V11.226H142.885ZM142.885 8.148V8.32731H149.122V8.148V7.96869H142.885V8.148ZM149.122 8.148H148.943V10.227H149.122H149.301V8.148H149.122ZM149.122 10.227L149.269 10.3292C150.168 9.03441 151.496 8.00331 153.226 8.00331V7.824V7.64469C151.337 7.64469 149.912 8.77358 148.975 10.1248L149.122 10.227ZM153.226 7.824V8.00331C153.3 8.00331 153.401 8.00959 153.519 8.0165C153.633 8.02321 153.76 8.03031 153.874 8.03031V7.851V7.67169C153.772 7.67169 153.656 7.66529 153.54 7.6585C153.428 7.65191 153.313 7.64469 153.226 7.64469V7.824ZM153.874 7.851H153.695V11.739H153.874H154.053V7.851H153.874ZM153.874 11.739L153.879 11.5598C152.989 11.5328 152.484 11.5317 151.922 11.6442L151.957 11.82L151.992 11.9958C152.509 11.8923 152.976 11.8912 153.868 11.9182L153.874 11.739ZM151.957 11.82L151.941 11.6414C150.984 11.7259 150.092 12.15 149.568 12.9059L149.716 13.008L149.863 13.1101C150.312 12.462 151.094 12.0761 151.973 11.9986L151.957 11.82ZM149.716 13.008L149.568 12.907C149.131 13.5481 148.997 14.3241 148.997 15.627H149.176H149.355C149.355 14.3379 149.491 13.6559 149.864 13.109L149.716 13.008ZM149.176 15.627H148.997V17.895H149.176H149.355V15.627H149.176ZM149.176 17.895V18.0743H150.661V17.895V17.7157H149.176V17.895ZM150.661 17.895H150.482V21H150.661H150.84V17.895H150.661ZM150.661 21V20.8207H142.912V21V21.1793H150.661V21ZM142.912 21H143.091V17.895H142.912H142.733V21H142.912ZM162.673 13.629L162.56 13.7686L162.852 14.004V13.629H162.673ZM162.673 13.305H162.852L162.852 13.299L162.673 13.305ZM155.464 11.712H155.284V12.0078L155.547 11.871L155.464 11.712ZM155.464 8.688L155.41 8.51701L155.284 8.55658V8.688H155.464ZM167.722 17.895H167.542V18.0743H167.722V17.895ZM169.045 17.895H169.224V17.7157H169.045V17.895ZM169.045 21V21.1793H169.224V21H169.045ZM162.727 21H162.547V21.1793H162.727V21ZM162.727 19.515H162.906V18.9574L162.581 19.4105L162.727 19.515ZM158.677 21.27V21.0907C157.307 21.0907 156.222 20.6896 155.48 19.9794C154.738 19.2702 154.32 18.2338 154.32 16.923H154.141H153.961C153.961 18.3122 154.407 19.4493 155.232 20.2386C156.056 21.0269 157.238 21.4493 158.677 21.4493V21.27ZM154.141 16.923H154.32C154.32 15.6053 154.795 14.5424 155.623 13.807C156.454 13.0696 157.657 12.6473 159.136 12.6473V12.468V12.2887C157.59 12.2887 156.296 12.7304 155.385 13.5388C154.472 14.3491 153.961 15.5137 153.961 16.923H154.141ZM159.136 12.468V12.6473C160.581 12.6473 161.756 13.1202 162.56 13.7686L162.673 13.629L162.785 13.4894C161.915 12.7878 160.66 12.2887 159.136 12.2887V12.468ZM162.673 13.629H162.852V13.305H162.673H162.493V13.629H162.673ZM162.673 13.305L162.852 13.299C162.823 12.4472 162.516 11.7407 161.927 11.2502C161.341 10.7627 160.499 10.5067 159.433 10.5067V10.686V10.8653C160.446 10.8653 161.196 11.1088 161.697 11.5258C162.195 11.9398 162.468 12.5428 162.493 13.311L162.673 13.305ZM159.433 10.686V10.5067C157.941 10.5067 156.643 10.8942 155.381 11.553L155.464 11.712L155.547 11.871C156.768 11.2338 158.009 10.8653 159.433 10.8653V10.686ZM155.464 11.712H155.643V8.688H155.464H155.284V11.712H155.464ZM155.464 8.688L155.518 8.85899C157.042 8.37758 158.671 8.03031 160.945 8.03031V7.851V7.67169C158.628 7.67169 156.963 8.02642 155.41 8.51701L155.464 8.688ZM160.945 7.851V8.03031C163.417 8.03031 165.066 8.60501 166.094 9.43184C167.118 10.2559 167.542 11.3436 167.542 12.414H167.722H167.901C167.901 11.2434 167.434 10.0496 166.319 9.15241C165.207 8.25799 163.468 7.67169 160.945 7.67169V7.851ZM167.722 12.414H167.542V17.895H167.722H167.901V12.414H167.722ZM167.722 17.895V18.0743H169.045V17.895V17.7157H167.722V17.895ZM169.045 17.895H168.865V21H169.045H169.224V17.895H169.045ZM169.045 21V20.8207H162.727V21V21.1793H169.045V21ZM162.727 21H162.906V19.515H162.727H162.547V21H162.727ZM162.727 19.515L162.581 19.4105C161.736 20.5879 160.265 21.0907 158.677 21.0907V21.27V21.4493C160.329 21.4493 161.935 20.9261 162.872 19.6195L162.727 19.515ZM160.918 18.408V18.5873C161.514 18.5873 162.028 18.431 162.394 18.1028C162.763 17.7719 162.96 17.2871 162.96 16.68H162.781H162.601C162.601 17.2069 162.433 17.5861 162.155 17.8357C161.873 18.088 161.455 18.2287 160.918 18.2287V18.408ZM162.781 16.68H162.96C162.96 16.0856 162.763 15.5963 162.4 15.2565C162.039 14.9182 161.533 14.7457 160.945 14.7457V14.925V15.1043C161.464 15.1043 161.875 15.2558 162.155 15.5182C162.434 15.7792 162.601 16.1674 162.601 16.68H162.781ZM160.945 14.925V14.7457C160.345 14.7457 159.813 14.9172 159.43 15.2523C159.043 15.5898 158.821 16.0796 158.821 16.68H159.001H159.18C159.18 16.1734 159.364 15.7857 159.665 15.5225C159.97 15.2567 160.411 15.1043 160.945 15.1043V14.925ZM159.001 16.68H158.821C158.821 17.2892 159.026 17.7744 159.406 18.1046C159.783 18.4316 160.309 18.5873 160.918 18.5873V18.408V18.2287C160.366 18.2287 159.933 18.0874 159.641 17.8339C159.353 17.5836 159.18 17.2048 159.18 16.68H159.001ZM169.807 22.836V22.6567H169.627V22.836H169.807ZM171.076 22.836V23.0153H171.255V22.836H171.076ZM171.076 11.226H171.255V11.0467H171.076V11.226ZM169.807 11.226H169.627V11.4053H169.807V11.226ZM169.807 8.148V7.96869H169.627V8.148H169.807ZM176.071 8.148H176.25V7.96869H176.071V8.148ZM176.071 9.498H175.891V9.88698L176.187 9.63434L176.071 9.498ZM176.071 19.65L176.189 19.5149L175.891 19.2556V19.65H176.071ZM176.071 22.836H175.891V23.0153H176.071V22.836ZM177.286 22.836H177.465V22.6567H177.286V22.836ZM177.286 25.914V26.0933H177.465V25.914H177.286ZM169.807 25.914H169.627V26.0933H169.807V25.914ZM169.807 22.836V23.0153H171.076V22.836V22.6567H169.807V22.836ZM171.076 22.836H171.255V11.226H171.076H170.896V22.836H171.076ZM171.076 11.226V11.0467H169.807V11.226V11.4053H171.076V11.226ZM169.807 11.226H169.986V8.148H169.807H169.627V11.226H169.807ZM169.807 8.148V8.32731H176.071V8.148V7.96869H169.807V8.148ZM176.071 8.148H175.891V9.498H176.071H176.25V8.148H176.071ZM176.071 9.498L176.187 9.63434C177.461 8.54633 178.609 8.03031 180.013 8.03031V7.851V7.67169C178.5 7.67169 177.273 8.23567 175.954 9.36166L176.071 9.498ZM180.013 7.851V8.03031C181.665 8.03031 182.992 8.79584 183.91 9.99513C184.831 11.1978 185.341 12.8386 185.341 14.574H185.521H185.7C185.7 12.7724 185.171 11.0517 184.195 9.77712C183.217 8.49916 181.789 7.67169 180.013 7.67169V7.851ZM185.521 14.574H185.341C185.341 18.6025 182.781 21.1447 179.932 21.1447V21.324V21.5033C183.023 21.5033 185.7 18.7535 185.7 14.574H185.521ZM179.932 21.324V21.1447C178.612 21.1447 177.437 20.6037 176.189 19.5149L176.071 19.65L175.953 19.7851C177.243 20.9103 178.498 21.5033 179.932 21.5033V21.324ZM176.071 19.65H175.891V22.836H176.071H176.25V19.65H176.071ZM176.071 22.836V23.0153H177.286V22.836V22.6567H176.071V22.836ZM177.286 22.836H177.106V25.914H177.286H177.465V22.836H177.286ZM177.286 25.914V25.7347H169.807V25.914V26.0933H177.286V25.914ZM169.807 25.914H169.986V22.836H169.807H169.627V25.914H169.807ZM180.499 14.655H180.678C180.678 13.7122 180.549 12.7619 180.19 12.0405C180.01 11.6778 179.768 11.3672 179.45 11.1473C179.131 10.9263 178.744 10.8037 178.285 10.8037V10.983V11.1623C178.676 11.1623 178.991 11.2658 179.246 11.4422C179.503 11.6198 179.709 11.8779 179.869 12.2002C180.192 12.8491 180.319 13.7348 180.319 14.655H180.499ZM178.285 10.983V10.8037C177.53 10.8037 176.922 11.1631 176.51 11.8041C176.104 12.4374 175.891 13.3395 175.891 14.439H176.071H176.25C176.25 13.3785 176.456 12.5526 176.812 11.9979C177.163 11.4509 177.662 11.1623 178.285 11.1623V10.983ZM176.071 14.439H175.891C175.891 15.5085 176.076 16.4612 176.468 17.1532C176.865 17.8537 177.48 18.2903 178.312 18.2903V18.111V17.9317C177.631 17.9317 177.126 17.5853 176.78 16.9763C176.43 16.3588 176.25 15.4755 176.25 14.439H176.071ZM178.312 18.111V18.2903C179.156 18.2903 179.758 17.8545 180.139 17.1799C180.514 16.5148 180.678 15.6161 180.678 14.655H180.499H180.319C180.319 15.5839 180.16 16.4132 179.826 17.0036C179.498 17.5845 179.006 17.9317 178.312 17.9317V18.111ZM186.315 22.836V22.6567H186.136V22.836H186.315ZM187.584 22.836V23.0153H187.764V22.836H187.584ZM187.584 11.226H187.764V11.0467H187.584V11.226ZM186.315 11.226H186.136V11.4053H186.315V11.226ZM186.315 8.148V7.96869H186.136V8.148H186.315ZM192.579 8.148H192.759V7.96869H192.579V8.148ZM192.579 9.498H192.4V9.88698L192.696 9.63434L192.579 9.498ZM192.579 19.65L192.697 19.5149L192.4 19.2556V19.65H192.579ZM192.579 22.836H192.4V23.0153H192.579V22.836ZM193.794 22.836H193.974V22.6567H193.794V22.836ZM193.794 25.914V26.0933H193.974V25.914H193.794ZM186.315 25.914H186.136V26.0933H186.315V25.914ZM186.315 22.836V23.0153H187.584V22.836V22.6567H186.315V22.836ZM187.584 22.836H187.764V11.226H187.584H187.405V22.836H187.584ZM187.584 11.226V11.0467H186.315V11.226V11.4053H187.584V11.226ZM186.315 11.226H186.495V8.148H186.315H186.136V11.226H186.315ZM186.315 8.148V8.32731H192.579V8.148V7.96869H186.315V8.148ZM192.579 8.148H192.4V9.498H192.579H192.759V8.148H192.579ZM192.579 9.498L192.696 9.63434C193.97 8.54633 195.118 8.03031 196.521 8.03031V7.851V7.67169C195.009 7.67169 193.781 8.23567 192.463 9.36166L192.579 9.498ZM196.521 7.851V8.03031C198.174 8.03031 199.501 8.79584 200.419 9.99513C201.34 11.1978 201.85 12.8386 201.85 14.574H202.029H202.209C202.209 12.7724 201.68 11.0517 200.704 9.77712C199.725 8.49916 198.298 7.67169 196.521 7.67169V7.851ZM202.029 14.574H201.85C201.85 18.6025 199.289 21.1447 196.44 21.1447V21.324V21.5033C199.531 21.5033 202.209 18.7535 202.209 14.574H202.029ZM196.44 21.324V21.1447C195.12 21.1447 193.945 20.6037 192.697 19.5149L192.579 19.65L192.461 19.7851C193.751 20.9103 195.007 21.5033 196.44 21.5033V21.324ZM192.579 19.65H192.4V22.836H192.579H192.759V19.65H192.579ZM192.579 22.836V23.0153H193.794V22.836V22.6567H192.579V22.836ZM193.794 22.836H193.615V25.914H193.794H193.974V22.836H193.794ZM193.794 25.914V25.7347H186.315V25.914V26.0933H193.794V25.914ZM186.315 25.914H186.495V22.836H186.315H186.136V25.914H186.315ZM197.007 14.655H197.187C197.187 13.7122 197.058 12.7619 196.699 12.0405C196.518 11.6778 196.277 11.3672 195.959 11.1473C195.639 10.9263 195.252 10.8037 194.793 10.8037V10.983V11.1623C195.185 11.1623 195.5 11.2658 195.755 11.4422C196.012 11.6198 196.217 11.8779 196.378 12.2002C196.701 12.8491 196.828 13.7348 196.828 14.655H197.007ZM194.793 10.983V10.8037C194.039 10.8037 193.431 11.1631 193.019 11.8041C192.613 12.4374 192.4 13.3395 192.4 14.439H192.579H192.759C192.759 13.3785 192.965 12.5526 193.321 11.9979C193.672 11.4509 194.171 11.1623 194.793 11.1623V10.983ZM192.579 14.439H192.4C192.4 15.5085 192.585 16.4612 192.977 17.1532C193.374 17.8537 193.989 18.2903 194.82 18.2903V18.111V17.9317C194.14 17.9317 193.634 17.5853 193.289 16.9763C192.939 16.3588 192.759 15.4755 192.759 14.439H192.579ZM194.82 18.111V18.2903C195.665 18.2903 196.266 17.8545 196.647 17.1799C197.023 16.5148 197.187 15.6161 197.187 14.655H197.007H196.828C196.828 15.5839 196.668 16.4132 196.335 17.0036C196.007 17.5845 195.515 17.9317 194.82 17.9317V18.111ZM216.886 16.977L217.058 17.0275L217.125 16.7977H216.886V16.977ZM205.195 19.542L205.071 19.6714L205.072 19.6727L205.195 19.542ZM216.859 15.735V15.9143H217.024L217.038 15.7499L216.859 15.735ZM208.219 15.735V15.5557H208.025L208.04 15.7485L208.219 15.735ZM213.187 16.977V16.7977H213.073L213.025 16.9009L213.187 16.977ZM208.597 12.009L208.752 12.1L208.756 12.0917L208.597 12.009ZM208.192 13.791L208.013 13.7846L208.006 13.9703H208.192V13.791ZM212.377 13.791V13.9703H212.556V13.791H212.377ZM212.377 13.629H212.557L212.556 13.616L212.377 13.629ZM216.886 16.977L216.714 16.9265C215.879 19.7717 213.348 21.1447 210.406 21.1447V21.324V21.5033C213.458 21.5033 216.165 20.0683 217.058 17.0275L216.886 16.977ZM210.406 21.324V21.1447C208.437 21.1447 206.597 20.6122 205.318 19.4113L205.195 19.542L205.072 19.6727C206.439 20.9558 208.379 21.5033 210.406 21.5033V21.324ZM205.195 19.542L205.319 19.4126C204.035 18.1808 203.349 16.5012 203.349 14.52H203.17H202.991C202.991 16.5888 203.709 18.3652 205.071 19.6714L205.195 19.542ZM203.17 14.52H203.349C203.349 12.5018 204.1 10.8833 205.31 9.76823C206.521 8.65158 208.204 8.03031 210.082 8.03031V7.851V7.67169C208.126 7.67169 206.353 8.31942 205.067 9.50452C203.779 10.6912 202.991 12.4072 202.991 14.52H203.17ZM210.082 7.851V8.03031C213.897 8.03031 216.734 10.8111 216.734 14.79H216.913H217.092C217.092 10.6149 214.097 7.67169 210.082 7.67169V7.851ZM216.913 14.79H216.734C216.734 15.105 216.707 15.3939 216.68 15.7201L216.859 15.735L217.038 15.7499C217.064 15.4281 217.092 15.123 217.092 14.79H216.913ZM216.859 15.735V15.5557H208.219V15.735V15.9143H216.859V15.735ZM208.219 15.735L208.04 15.7485C208.11 16.6711 208.413 17.3785 208.908 17.8554C209.404 18.3329 210.073 18.5603 210.838 18.5603V18.381V18.2017C210.145 18.2017 209.572 17.9971 209.157 17.5971C208.741 17.1965 208.463 16.5809 208.398 15.7215L208.219 15.735ZM210.838 18.381V18.5603C211.46 18.5603 211.98 18.4187 212.401 18.155C212.823 17.8911 213.134 17.5116 213.349 17.0531L213.187 16.977L213.025 16.9009C212.834 17.3064 212.566 17.6289 212.211 17.851C211.856 18.0733 211.404 18.2017 210.838 18.2017V18.381ZM213.187 16.977V17.1563H216.886V16.977V16.7977H213.187V16.977ZM208.597 12.009L208.442 11.9181C208.15 12.4154 208.04 13.018 208.013 13.7846L208.192 13.791L208.371 13.7974C208.398 13.052 208.504 12.5206 208.751 12.0999L208.597 12.009ZM208.192 13.791V13.9703H212.377V13.791V13.6117H208.192V13.791ZM212.377 13.791H212.556V13.629H212.377H212.198V13.791H212.377ZM212.377 13.629L212.556 13.616C212.501 12.8588 212.328 12.1604 211.971 11.6468C211.606 11.1228 211.059 10.8037 210.298 10.8037V10.983V11.1623C210.941 11.1623 211.379 11.4237 211.676 11.8515C211.981 12.2896 212.145 12.9142 212.198 13.642L212.377 13.629ZM210.298 10.983V10.8037C209.476 10.8037 208.82 11.1906 208.438 11.9263L208.597 12.009L208.756 12.0917C209.075 11.4774 209.607 11.1623 210.298 11.1623V10.983ZM227.177 9.444L227.053 9.574L227.356 9.86167V9.444H227.177ZM227.177 5.151H227.356V4.97169H227.177V5.151ZM225.719 5.151H225.539V5.33031H225.719V5.151ZM225.719 2.073V1.89369H225.539V2.073H225.719ZM232.172 2.073H232.351V1.89369H232.172V2.073ZM232.172 17.922H231.992V18.1013H232.172V17.922ZM233.495 17.922H233.674V17.7427H233.495V17.922ZM233.495 21V21.1793H233.674V21H233.495ZM227.204 21H227.024V21.1793H227.204V21ZM227.204 19.623H227.383V19.2118L227.082 19.4916L227.204 19.623ZM217.754 14.547H217.933C217.933 12.7034 218.464 11.0716 219.408 9.90445C220.351 8.74059 221.711 8.03031 223.397 8.03031V7.851V7.67169C221.6 7.67169 220.138 8.43291 219.13 9.6788C218.124 10.9214 217.574 12.6376 217.574 14.547H217.754ZM223.397 7.851V8.03031C224.855 8.03031 226.001 8.57409 227.053 9.574L227.177 9.444L227.3 9.314C226.193 8.26191 224.962 7.67169 223.397 7.67169V7.851ZM227.177 9.444H227.356V5.151H227.177H226.997V9.444H227.177ZM227.177 5.151V4.97169H225.719V5.151V5.33031H227.177V5.151ZM225.719 5.151H225.898V2.073H225.719H225.539V5.151H225.719ZM225.719 2.073V2.25231H232.172V2.073V1.89369H225.719V2.073ZM232.172 2.073H231.992V17.922H232.172H232.351V2.073H232.172ZM232.172 17.922V18.1013H233.495V17.922V17.7427H232.172V17.922ZM233.495 17.922H233.315V21H233.495H233.674V17.922H233.495ZM233.495 21V20.8207H227.204V21V21.1793H233.495V21ZM227.204 21H227.383V19.623H227.204H227.024V21H227.204ZM227.204 19.623L227.082 19.4916C225.969 20.5249 224.849 21.1447 223.289 21.1447V21.324V21.5033C224.968 21.5033 226.17 20.8271 227.326 19.7544L227.204 19.623ZM223.289 21.324V21.1447C221.606 21.1447 220.274 20.4037 219.357 19.2132C218.438 18.0188 217.933 16.3654 217.933 14.547H217.754H217.574C217.574 16.4276 218.096 18.1627 219.073 19.432C220.053 20.7053 221.488 21.5033 223.289 21.5033V21.324ZM227.258 14.412H227.437C227.437 13.5538 227.258 12.6636 226.87 11.9812C226.48 11.2941 225.868 10.8037 225.017 10.8037V10.983V11.1623C225.704 11.1623 226.213 11.5494 226.558 12.1583C226.907 12.7719 227.078 13.5962 227.078 14.412H227.258ZM225.017 10.983V10.8037C224.153 10.8037 223.534 11.2855 223.139 11.9887C222.748 12.6857 222.569 13.6101 222.569 14.547H222.749H222.928C222.928 13.6479 223.1 12.7903 223.452 12.1643C223.8 11.5445 224.314 11.1623 225.017 11.1623V10.983ZM222.749 14.547H222.569C222.569 15.4555 222.734 16.3794 223.118 17.0831C223.506 17.794 224.126 18.2903 225.017 18.2903V18.111V17.9317C224.288 17.9317 223.774 17.537 223.433 16.9114C223.087 16.2786 222.928 15.4205 222.928 14.547H222.749ZM225.017 18.111V18.2903C225.933 18.2903 226.543 17.7133 226.916 16.9584C227.286 16.207 227.437 15.2525 227.437 14.412H227.258H227.078C227.078 15.2185 226.932 16.1135 226.594 16.7998C226.257 17.4827 225.748 17.9317 225.017 17.9317V18.111Z" fill="black" mask="url(#path-1-outside-1_702_35680)"/>
<path d="M35.2816 1.58709C36.7512 1.56056 38.2039 1.90377 39.5063 2.58518V1.93563H44.4333V8.07729H39.5063C39.1577 6.59336 38.5399 5.92269 37.0559 5.92269C35.1971 5.92269 34.067 7.29572 34.067 11.0927C34.067 15.1853 35.0914 16.4792 37.4045 16.4792C38.0011 16.4887 38.589 16.3354 39.1049 16.0356V14.2718H37.5682V10.6596H44.4333V20.8148H40.2086V19.8695C38.9871 20.7659 37.4979 21.222 35.9839 21.1633C30.6766 21.1633 26.9325 17.6198 26.9325 11.0927C26.9325 5.11471 30.703 1.58709 35.2816 1.58709Z" fill="black"/>
<path d="M49.8251 21.0577C46.889 21.0577 45.1621 19.4734 45.1621 16.7749C45.1621 14.0764 47.1847 12.339 50.3902 12.339C51.6043 12.3354 52.7996 12.6388 53.865 13.2209C53.8069 11.7686 52.7032 10.8234 50.6595 10.8234C49.1803 10.829 47.7229 11.1798 46.4031 11.8479V8.45225C48.3926 7.88994 50.451 7.60909 52.5184 7.61788C58.1161 7.61788 60.0278 10.0682 60.0278 12.2228V17.3136H61.1632V20.8148H53.9178V19.521C52.8933 20.6511 51.383 21.0577 49.8251 21.0577ZM53.997 16.4792C54.0212 16.2931 54.0024 16.104 53.9419 15.9264C53.8815 15.7488 53.7811 15.5874 53.6484 15.4548C53.5158 15.3221 53.3544 15.2217 53.1768 15.1612C52.9992 15.1008 52.81 15.0819 52.624 15.1062C51.7104 15.1062 51.0873 15.5656 51.0873 16.5056C51.0873 17.4456 51.6153 17.8258 52.5976 17.8258C53.5798 17.8258 53.997 17.4192 53.997 16.4792Z" fill="black"/>
<path d="M63.1538 17.3136V11.3885H62.0977V7.88727H69.2638V9.28671C70.9326 8.02458 71.8197 7.61795 73.14 7.61795C74.7559 7.61795 75.7276 8.07739 76.9897 9.39761C78.6321 8.10379 79.7939 7.61795 81.2144 7.61795C83.8813 7.61795 85.682 9.42401 85.682 11.7687V17.3136H86.7382V20.8149H79.5826V12.978C79.5826 11.9535 79.176 11.3938 78.4789 11.3938C77.7819 11.3938 77.4544 11.9219 77.4544 12.978V17.3136H78.368V20.8149H71.3709V12.9252C71.3709 12.0064 70.9378 11.3885 70.3147 11.3885C69.6916 11.3885 69.2585 11.98 69.2585 12.9252V17.3136H70.1985V20.8149H62.0765V17.3136H63.1538Z" fill="black"/>
<path d="M94.8549 21.0842C92.9168 21.0842 90.7623 20.6828 89.2519 19.3309C88.5371 18.7041 87.967 17.9293 87.5813 17.0604C87.1956 16.1914 87.0034 15.2489 87.0181 14.2983C87.0181 10.0736 90.382 7.61795 94.4113 7.61795C98.7733 7.61795 101.657 10.6914 101.657 14.4039C101.657 14.8369 101.63 15.2383 101.604 15.6713H93.1545C93.3182 17.1816 94.1262 17.8523 95.3619 17.8523C95.767 17.8497 96.1648 17.7447 96.5184 17.5471C96.872 17.3495 97.1699 17.0658 97.3845 16.7222H101.609C100.696 19.6847 97.9759 21.0842 94.8549 21.0842ZM93.1017 13.691H96.2702V13.3635C96.2702 12.2598 96.0009 11.1297 94.6859 11.1297C94.3655 11.12 94.0507 11.2147 93.7887 11.3994C93.5268 11.5842 93.332 11.8491 93.2337 12.1542C93.095 12.6503 93.0503 13.1679 93.1017 13.6804V13.691Z" fill="black"/>
<path d="M105.222 20.8148H102.312V16.5056H105.195C105.544 17.6357 106.003 18.2272 107.107 18.2272C107.941 18.2272 108.453 17.8787 108.453 17.2344C108.453 16.775 108.158 16.4264 107.593 16.1782L104.794 14.9795C104.149 14.7216 103.597 14.2763 103.208 13.701C102.819 13.1258 102.612 12.4472 102.613 11.7528C102.613 9.54016 104.794 7.60208 107.54 7.60208C108.708 7.61698 109.856 7.89877 110.898 8.4259V7.89781H113.835V11.9377H111.141C110.898 10.7284 110.413 10.1369 109.446 10.1369C108.744 10.1369 108.205 10.4854 108.205 11.0505C108.205 11.6155 108.527 11.9377 109.203 12.207L111.949 13.2632C113.755 13.9655 114.59 15.122 114.59 16.6852C114.59 19.1619 112.477 21.0736 109.446 21.0736C108.1 21.0736 107.154 20.8571 105.222 20.16V20.8148Z" fill="black"/>
<path d="M21.6728 1.94629H21.1764V20.799H21.6728V1.94629Z" fill="black"/>
<path d="M16.0803 13.6223C15.7733 14.4937 15.2852 15.2902 14.648 15.9592C14.0108 16.6283 13.2391 17.1547 12.3836 17.5037V13.6223L14.496 11.7053L12.3836 9.81475V7.14262C13.2561 7.12623 14.088 6.7709 14.703 6.1519C15.3181 5.53289 15.6681 4.6988 15.6789 3.82624C15.6789 1.52906 13.4926 0.721082 12.2516 0.721082C11.9157 0.711463 11.58 0.746986 11.2535 0.826699V0.937598C11.412 0.937598 11.6549 0.937598 11.7394 0.937598C12.6002 0.937598 13.2497 1.33894 13.2497 2.12579C13.2425 2.29359 13.2014 2.45818 13.1287 2.60961C13.0561 2.76103 12.9534 2.89613 12.827 3.00672C12.7007 3.11732 12.5531 3.20111 12.3934 3.25302C12.2337 3.30492 12.0651 3.32387 11.8978 3.30871C9.78546 3.30871 7.25592 1.58186 4.53099 1.58186C2.11235 1.55546 0.433032 3.36152 0.433032 5.19926C0.433032 7.03701 1.48393 7.58622 2.58763 8.00869L2.64044 7.89779C2.44235 7.7727 2.28212 7.59597 2.17697 7.38661C2.07183 7.17725 2.02575 6.94318 2.0437 6.70959C2.05648 6.50187 2.11006 6.29871 2.20138 6.1117C2.2927 5.9247 2.41997 5.75752 2.57592 5.61972C2.73187 5.48191 2.91345 5.37618 3.11027 5.30857C3.30709 5.24096 3.5153 5.21279 3.72302 5.22567C6.01492 5.22567 9.71681 7.14262 12.0087 7.14262H12.2252V9.84115L10.1129 11.7053L12.2252 13.6223V17.5565C11.3425 17.8712 10.411 18.0268 9.47389 18.0159C5.9093 18.0159 3.66493 15.8613 3.66493 12.2704C3.65772 11.4217 3.77515 10.5765 4.01346 9.76194L5.79312 8.98037V16.9017L9.41052 15.3174V7.19543L4.07155 9.57183C4.32098 8.84481 4.71221 8.17453 5.22257 7.59981C5.73292 7.0251 6.35226 6.55738 7.04469 6.22375L7.01828 6.14454C3.45369 6.92611 0 9.62463 0 13.6751C0 18.3434 3.93953 21.5964 8.52861 21.5964C13.3817 21.5964 16.1384 18.3592 16.1648 13.6381L16.0803 13.6223Z" fill="black"/>
</svg>
