<svg width="82" height="46" viewBox="0 0 82 46" fill="none" xmlns="http://www.w3.org/2000/svg">
<g clip-path="url(#clip0_710_53608)">
<path d="M16.0489 9.74504C17.0752 9.72756 18.0897 9.96633 19.0005 10.4397V9.97916H22.4548V14.2779H19.0005C18.7548 13.2416 18.325 12.7734 17.2887 12.7734C15.976 12.7734 15.2084 13.7329 15.2084 16.3851C15.2084 19.2407 15.9261 20.1465 17.542 20.1465C17.9574 20.1543 18.3672 20.0495 18.728 19.8433V18.6035H17.6533V16.0819H22.451V23.171H19.4918V22.5146C18.641 23.1339 17.6072 23.4501 16.5556 23.4128C12.8325 23.4128 10.2188 20.9525 10.2188 16.3851C10.2188 12.2091 12.8517 9.74504 16.0489 9.74504Z" fill="black"/>
<path d="M26.3164 23.3397C24.2668 23.3397 23.0654 22.2305 23.0654 20.3498C23.0654 18.4691 24.474 17.2792 26.7117 17.2792C27.5581 17.2726 28.3925 17.4798 29.1374 17.8818C29.099 16.8647 28.3314 16.2084 26.8998 16.2084C25.8675 16.2121 24.8503 16.4565 23.929 16.9223V14.5426C25.317 14.1475 26.754 13.9511 28.1971 13.9592C32.1082 13.9592 33.4438 15.6672 33.4438 17.1718V20.7259H34.2345V23.1708H29.1758V22.2612C28.4619 23.0595 27.4064 23.3397 26.3164 23.3397ZM29.2334 20.1464C29.2502 20.0152 29.2365 19.8818 29.1931 19.7569C29.1498 19.6319 29.0781 19.5186 28.9836 19.426C28.8892 19.3334 28.7745 19.264 28.6487 19.2232C28.5229 19.1823 28.3893 19.1712 28.2585 19.1907C27.6175 19.1907 27.1876 19.5092 27.1876 20.1656C27.1876 20.8219 27.5714 21.0906 28.2393 21.0906C28.9071 21.0906 29.2334 20.8027 29.2334 20.1464Z" fill="black"/>
<path d="M35.628 20.7259V16.5922H34.8604V14.1473H39.85V15.1222C41.0014 14.2394 41.6386 13.9707 42.5597 13.9707C43.6881 13.9707 44.3637 14.2893 45.2464 15.2104C46.3979 14.3085 47.2039 13.9707 48.2018 13.9707C50.0634 13.9707 51.3223 15.2296 51.3223 16.8647V20.7259H52.0899V23.1708H47.1003V17.7014C47.1003 16.9837 46.8163 16.5922 46.3326 16.5922C45.849 16.5922 45.6188 16.9491 45.6188 17.7014V20.7259H46.2559V23.1708H41.3622V17.6553C41.3622 17.0144 41.0628 16.5845 40.6291 16.5845C40.1954 16.5845 39.8615 16.9952 39.8615 17.6553V20.7259H40.5408V23.1708H34.8757V20.7259H35.628Z" fill="black"/>
<path d="M57.7052 23.3592C56.3541 23.3592 54.8496 23.079 53.7941 22.1386C53.2963 21.6995 52.8994 21.158 52.6304 20.5512C52.3615 19.9443 52.2268 19.2865 52.2358 18.6229C52.2358 15.6675 54.5847 13.9595 57.3866 13.9595C60.4341 13.9595 62.4453 16.1012 62.4453 18.6958C62.4453 18.999 62.4453 19.2792 62.4069 19.5824H56.5038C56.6151 20.6341 57.1793 21.1177 58.0391 21.1177C58.3194 21.1179 58.5952 21.0478 58.8414 20.9136C59.0875 20.7795 59.296 20.5857 59.4477 20.35H62.4184C61.789 22.3843 59.8891 23.3592 57.7052 23.3592ZM56.4846 18.1891H58.7031V17.9627C58.7031 17.1951 58.515 16.4044 57.5939 16.4044C57.3698 16.3968 57.1494 16.4624 56.9659 16.5912C56.7824 16.72 56.6458 16.905 56.5767 17.1183C56.481 17.4666 56.4498 17.8296 56.4846 18.1891V18.1891Z" fill="black"/>
<path d="M64.8898 23.1711H62.8594V20.162H64.8706C65.1162 20.9526 65.4348 21.3671 66.2063 21.3671C66.7897 21.3671 67.1466 21.1215 67.1466 20.6724C67.1466 20.35 66.9394 20.1082 66.544 19.9393L64.5904 19.1103C64.1379 18.9312 63.7496 18.6203 63.4759 18.2179C63.2021 17.8155 63.0556 17.3401 63.0551 16.8535C63.0551 15.3182 64.5904 13.9595 66.5095 13.9595C67.3188 13.9688 68.1154 14.1617 68.8392 14.5237V14.1399H70.8888V16.9609H69.0081C68.8392 16.1127 68.5015 15.6982 67.8221 15.6982C67.3347 15.6982 66.9585 15.9438 66.9585 16.3391C66.9585 16.6769 67.185 16.9609 67.6533 17.149L69.5723 17.9166C70.8313 18.4041 71.4147 19.2139 71.4147 20.304C71.4147 22.035 69.9485 23.3745 67.8221 23.3745C66.8818 23.3745 66.2255 23.2248 64.8898 22.7374V23.1711Z" fill="black"/>
<path d="M18.9091 0.744605C18.9091 0.157365 18.3525 0 17.8958 0V0.0537344C18.176 0.0537344 18.3909 0.18807 18.3909 0.372303C18.3909 0.556535 18.2988 0.667842 18.0071 0.667842C17.6883 0.625919 17.3761 0.543368 17.0783 0.422199C16.7458 0.288036 16.3953 0.20396 16.0381 0.172718C15.9058 0.167579 15.7739 0.189012 15.65 0.235749C15.5262 0.282487 15.413 0.35358 15.3171 0.444825C15.2212 0.536071 15.1446 0.645617 15.0917 0.766987C15.0389 0.888358 15.0109 1.01909 15.0095 1.15145C15.0093 1.29517 15.055 1.43519 15.14 1.55116C15.2249 1.66712 15.3445 1.75298 15.4816 1.79626V1.77324C15.4297 1.74211 15.3882 1.69636 15.3623 1.64173C15.3363 1.58711 15.3271 1.52604 15.3357 1.46618C15.3355 1.41274 15.3465 1.35983 15.3679 1.31086C15.3893 1.26189 15.4207 1.21793 15.4601 1.1818C15.4995 1.14567 15.546 1.11816 15.5966 1.10104C15.6472 1.08391 15.7009 1.07755 15.7541 1.08236C16.1302 1.12377 16.5001 1.21011 16.8556 1.33952C17.2117 1.44687 17.5746 1.53022 17.9418 1.589V2.55622L17.512 2.9362L17.9687 3.32002V4.62116C17.7401 4.74421 17.4837 4.80634 17.2241 4.80155C17.0083 4.80889 16.7935 4.76908 16.5946 4.68489C16.3957 4.60071 16.2176 4.47417 16.0727 4.31411L17.2778 3.72303V1.66193L15.7656 2.33361C15.9176 1.96009 16.1871 1.64619 16.5332 1.43931V1.43931C16.0667 1.5573 15.6498 1.82057 15.3428 2.19107C15.0358 2.56158 14.8545 3.02012 14.8253 3.50041C14.8232 3.77759 14.876 4.05244 14.9806 4.30915C15.0851 4.56586 15.2394 4.79937 15.4345 4.99626C15.6296 5.19315 15.8617 5.34953 16.1174 5.45642C16.3732 5.5633 16.6475 5.61859 16.9247 5.61908C17.1819 5.62457 17.4374 5.57727 17.6755 5.48009C17.9136 5.38292 18.1292 5.23794 18.3091 5.05412C18.489 4.8703 18.6292 4.65154 18.7212 4.41137C18.8132 4.1712 18.8549 3.91472 18.8438 3.65778H18.817C18.6458 4.04637 18.3642 4.37606 18.0071 4.60581V3.33153L18.4869 2.94772L18.0071 2.5639V1.60436C18.1236 1.61064 18.2402 1.59302 18.3497 1.55259C18.4592 1.51215 18.5592 1.44976 18.6437 1.36923C18.7282 1.28871 18.7953 1.19176 18.8409 1.08434C18.8866 0.976925 18.9098 0.861311 18.9091 0.744605V0.744605ZM16.3605 4.10301L16.0112 4.2834C15.7653 3.93944 15.6398 3.52386 15.6543 3.10124C15.6485 2.86628 15.6795 2.63186 15.7464 2.40653L16.3605 2.12635V4.10301ZM22.0141 2.42956L21.78 2.6138L21.0623 1.97666L20.2332 2.62147V0.138174L19.101 0.905809C19.191 0.928439 19.2697 0.982898 19.3226 1.05911C19.3755 1.13531 19.3991 1.22811 19.3888 1.32033V4.75166L19.005 5.04336L19.0434 5.0779L19.2353 4.94357L19.907 5.55767L20.8051 4.98962L20.7783 4.94357L20.548 5.09709L20.2332 4.78236V2.68672L20.4482 2.52936L20.9433 2.95539V4.7555C20.9433 5.90695 20.69 6.12956 20.1757 6.31379V6.3445C21.0277 6.37904 21.7954 6.09118 21.7954 4.63267V2.68672L22.0525 2.47946L22.0141 2.42956ZM23.5494 5.56151L24.8582 4.50985L24.8045 4.45996L24.1213 4.98962L23.3537 4.36784V3.98402L24.7124 3.02448L24.0062 1.96898L22.5016 2.80187V4.77469L22.2099 5.00498L22.2444 5.0472L22.5246 4.82458L23.5494 5.56151ZM23.3498 3.91877V2.42189L23.9908 3.45436L23.3498 3.91877ZM30.2585 0.464419C30.2571 0.368241 30.2375 0.273196 30.201 0.184232H30.1779C30.0858 0.433713 29.9822 0.56805 29.6905 0.56805C29.5841 0.563492 29.4798 0.537714 29.3836 0.492234C29.2873 0.446753 29.2012 0.382487 29.1301 0.303216C29.1301 0.303216 28.2589 1.2973 28.2589 1.2973L28.3011 1.33185L28.5429 1.0555C28.7484 1.25575 29.0236 1.36856 29.3105 1.37023V3.87272L27.5603 0.825207C27.4936 0.67103 27.3876 0.537064 27.2529 0.436704C27.1182 0.336344 26.9595 0.273109 26.7927 0.253319C26.3206 0.253319 25.9598 0.660166 26.025 1.3472H26.0557C26.0903 1.17448 26.1901 0.963381 26.3973 0.963381C26.482 0.976721 26.5617 1.01162 26.629 1.06473C26.6962 1.11784 26.7486 1.18736 26.7812 1.2666V2.24149C26.2361 2.24149 25.9291 2.49097 25.9291 2.92085C25.9295 3.06485 25.9775 3.20468 26.0657 3.31854C26.1539 3.43239 26.2772 3.51389 26.4165 3.55031V3.53112C26.3861 3.50907 26.3613 3.48025 26.344 3.44694C26.3267 3.41364 26.3173 3.37675 26.3167 3.33921C26.3167 3.17417 26.4357 3.07821 26.6583 3.07821C26.694 3.07317 26.7302 3.07317 26.7658 3.07821V4.35249C26.1287 4.35249 25.6144 4.70944 25.6144 5.31203C25.6144 5.91462 26.1095 6.14875 26.6238 6.12189V6.09886C26.3052 6.06431 26.1402 5.89927 26.1402 5.6613C26.1399 5.6075 26.151 5.55424 26.1726 5.50499C26.1942 5.45573 26.226 5.41157 26.2658 5.37538C26.3056 5.33919 26.3526 5.31177 26.4037 5.2949C26.4548 5.27804 26.5088 5.27211 26.5624 5.27749C26.6743 5.28669 26.7828 5.32034 26.8803 5.37604C26.9778 5.43175 27.0618 5.50816 27.1266 5.59989L27.9863 4.63267L27.948 4.59813L27.7292 4.84761C27.4841 4.58616 27.1584 4.41451 26.8042 4.36016V1.35487L29.2299 5.57686H29.3604V1.35487C29.595 1.34696 29.8174 1.24868 29.9812 1.08059C30.145 0.9125 30.2375 0.687601 30.2394 0.452904L30.2585 0.464419ZM31.0569 5.54616L32.3657 4.4945L32.3312 4.4446L31.6633 4.98962L30.8957 4.36784V3.98402L32.2544 3.02448L31.5482 1.96898L30.0359 2.80187V4.77469L29.7442 5.00498L29.7788 5.0472L30.059 4.82458L31.0569 5.54616ZM30.8573 3.90342V2.42189L31.5328 3.45436L30.8573 3.90342ZM37.0368 2.3029L36.8372 2.45259L36.2653 1.97666L35.5974 2.57925L35.87 2.83641V5.0779L35.1906 4.60581V2.79419L35.4286 2.62915L34.7262 1.97666L34.0737 2.57925L34.3462 2.83641V4.98962L34.304 5.01649L33.6668 4.56743V2.78651C33.6668 2.37199 33.4596 2.24917 33.1947 2.08413C32.9299 1.91909 32.8647 1.81929 32.8647 1.61203C32.8694 1.53326 32.897 1.45757 32.944 1.3942C32.991 1.33082 33.0555 1.28248 33.1295 1.25508C32.9113 1.26172 32.7027 1.34627 32.5415 1.49342C32.3803 1.64057 32.2771 1.84059 32.2506 2.05726C32.2474 2.16856 32.2717 2.27893 32.3212 2.37865C32.3707 2.47838 32.444 2.5644 32.5346 2.62915C32.6209 2.68914 32.6924 2.76803 32.7436 2.85982C32.7948 2.9516 32.8244 3.05386 32.8301 3.15882V4.90518L32.5231 5.14699L32.5576 5.18537L32.8493 4.95508L33.6169 5.57686L34.3462 5.07023L35.1484 5.57686L36.7028 4.64803V2.62915L37.0867 2.35664L37.0368 2.3029ZM42.3104 0.617946L42.011 0.890456L41.3355 0.303216L40.4297 1.03247V0.345436H40.3721V5.26213C40.2723 5.26213 40.0612 5.18921 39.8348 5.15467V1.04014C39.835 0.94154 39.8149 0.843944 39.7758 0.753444C39.7366 0.662944 39.6793 0.581482 39.6072 0.514138C39.5352 0.446794 39.4501 0.395013 39.3572 0.362026C39.2642 0.329038 39.1655 0.315551 39.0671 0.322406C38.8446 0.323217 38.631 0.409885 38.4708 0.56434C38.3107 0.718795 38.2163 0.929116 38.2074 1.15145H38.2381C38.2442 1.06556 38.2809 0.984689 38.3414 0.92345C38.4019 0.86221 38.4824 0.824642 38.5682 0.817531C38.7524 0.817531 38.9098 0.932676 38.9098 1.33185V2.52168C38.7128 2.50858 38.5184 2.57185 38.3668 2.69836C38.2153 2.82488 38.1184 3.0049 38.0961 3.20104C38.0897 3.3435 38.139 3.48286 38.2336 3.58961C38.3281 3.69635 38.4605 3.7621 38.6027 3.77292V3.74606C38.4761 3.68848 38.4454 3.62323 38.4454 3.55031C38.4454 3.38143 38.6104 3.32386 38.8292 3.32386H38.8868V5.21224C38.7026 5.25329 38.538 5.3559 38.4201 5.50315C38.3021 5.65039 38.2379 5.83344 38.2381 6.02209C38.2406 6.14776 38.2692 6.27155 38.322 6.38563C38.3747 6.49971 38.4506 6.60163 38.5447 6.68493C38.6388 6.76824 38.7492 6.83113 38.8688 6.86965C38.9885 6.90817 39.1148 6.92146 39.2399 6.90871C39.607 6.90052 39.9717 6.84768 40.3261 6.75135C40.5972 6.68486 40.8731 6.63994 41.1513 6.61701C41.3816 6.61701 41.4814 6.7168 41.4814 6.88184C41.4814 7.04688 41.4008 7.19657 41.2818 7.23112V7.25798C41.4898 7.24343 41.6847 7.15063 41.8271 6.99824C41.9695 6.84586 42.0489 6.64519 42.0494 6.43662C42.038 6.32712 42.0049 6.22099 41.952 6.12443C41.8991 6.02787 41.8275 5.9428 41.7414 5.8742C41.6553 5.8056 41.5564 5.75484 41.4505 5.72488C41.3445 5.69491 41.2337 5.68635 41.1244 5.69969C40.7605 5.72043 40.3994 5.7757 40.0459 5.86473C39.7495 5.9348 39.4478 5.97974 39.1439 5.99906C38.9366 5.99906 38.6757 5.90695 38.6757 5.61525C38.6757 5.32355 38.8868 5.16618 39.4011 5.16618C39.7027 5.17215 40.0027 5.21206 40.2954 5.28516C40.5972 5.38162 40.9086 5.44469 41.2242 5.47323C41.6618 5.47323 41.9918 5.31587 41.9918 4.67873V0.951867L42.3142 0.660166L42.3104 0.617946ZM41.0783 2.58693C41.04 2.63584 40.9911 2.67542 40.9352 2.70268C40.8794 2.72994 40.8181 2.74417 40.7559 2.74429C40.6936 2.74215 40.6324 2.72706 40.5763 2.69996C40.5201 2.67287 40.4702 2.63437 40.4297 2.58693V1.10539L40.6446 0.932676L41.0783 1.31649V2.58693ZM41.0783 3.28548C41.037 3.24177 40.9869 3.20723 40.9314 3.18409C40.8759 3.16095 40.8161 3.14972 40.7559 3.15114C40.6339 3.15207 40.517 3.20022 40.4297 3.28548V2.65602C40.5151 2.7455 40.6323 2.79788 40.7559 2.80187C40.817 2.80233 40.8775 2.78953 40.9332 2.76435C40.9888 2.73917 41.0384 2.70221 41.0783 2.65602V3.28548ZM41.0783 4.76701C41.0783 5.01265 40.9594 5.28516 40.6446 5.28516C40.573 5.28911 40.5013 5.28911 40.4297 5.28516V3.36608C40.4697 3.31912 40.5194 3.28141 40.5754 3.25555C40.6314 3.22969 40.6923 3.2163 40.754 3.2163C40.8157 3.2163 40.8766 3.22969 40.9326 3.25555C40.9886 3.28141 41.0384 3.31912 41.0783 3.36608V4.76701ZM43.6115 5.56151L45.0739 4.6557V2.66369L44.1412 1.96898L42.6827 2.8057V4.77469L42.3948 5.00498L42.4255 5.0472L42.6597 4.85529L43.6115 5.56151ZM43.5041 4.53288V2.41421L44.2333 2.95923V5.0779L43.5041 4.53288ZM47.8796 2.01888C47.7878 2.09294 47.6749 2.13595 47.5572 2.1417C47.4939 2.13798 47.4319 2.12144 47.3752 2.09307C47.3185 2.0647 47.2681 2.02509 47.2271 1.97666C47.2271 1.97666 46.6821 2.5639 46.6821 2.5639L46.1409 1.97666L45.2543 2.5946L45.2811 2.6445L45.5306 2.48714L45.8492 2.83641V4.7555L45.4654 5.0472L45.4999 5.08174L45.6918 4.9474L46.4172 5.56151L47.3307 4.95508L47.3039 4.91286L47.0697 5.05487L46.6859 4.71711V2.6138C46.7484 2.69858 46.8277 2.76959 46.9188 2.82241C47.0099 2.87524 47.111 2.90874 47.2156 2.92085C47.5994 2.92085 47.8374 2.47946 47.8796 2.01888ZM51.3339 4.87064L51.0614 5.03952L49.553 2.78651L49.6298 2.67904C49.8081 2.82429 50.0294 2.90659 50.2593 2.91317C50.481 2.88094 50.6826 2.76701 50.8246 2.59374C50.9667 2.42047 51.0388 2.20038 51.0269 1.97666C50.9693 2.05296 50.8944 2.11438 50.8082 2.15578C50.7221 2.19717 50.6273 2.21735 50.5318 2.21463C50.3457 2.19727 50.1724 2.11266 50.0443 1.97666L48.985 3.49274L50.3514 5.57686L51.3455 4.92054L51.3339 4.87064ZM49.4993 4.92438L49.2728 5.0779L48.9581 4.76317V0.138174L47.8067 0.905809C47.8966 0.928439 47.9754 0.982898 48.0283 1.05911C48.0812 1.13531 48.1048 1.22811 48.0945 1.32033V4.75166L47.7107 5.04336L47.7453 5.0779L47.941 4.94357L48.6127 5.55767L49.5262 4.98962L49.4993 4.92438ZM56.1432 0.744605C56.1432 0.157365 55.5866 0 55.1261 0V0.0537344C55.4024 0.0537344 55.6173 0.18807 55.6173 0.372303C55.6173 0.556535 55.5252 0.667842 55.2335 0.667842C54.9148 0.625429 54.6027 0.542894 54.3047 0.422199C53.9734 0.288511 53.6242 0.204445 53.2684 0.172718C53.1366 0.168629 53.0052 0.190813 52.8821 0.237977C52.7589 0.285141 52.6464 0.356342 52.551 0.447432C52.4556 0.538522 52.3793 0.647681 52.3265 0.76855C52.2738 0.889418 52.2456 1.01958 52.2436 1.15145C52.244 1.29503 52.29 1.43477 52.3748 1.55062C52.4596 1.66647 52.579 1.75246 52.7157 1.79626V1.77324C52.6649 1.74123 52.6245 1.6952 52.5993 1.64072C52.5741 1.58623 52.5652 1.52561 52.5737 1.46618C52.5735 1.41309 52.5844 1.36053 52.6055 1.31185C52.6267 1.26316 52.6578 1.21939 52.6967 1.18332C52.7357 1.14725 52.7817 1.11965 52.8319 1.10227C52.882 1.0849 52.9353 1.07812 52.9882 1.08236C53.3644 1.12337 53.7343 1.20971 54.0898 1.33952C54.4458 1.44687 54.8087 1.53022 55.176 1.589V2.55622L54.7192 2.94004L55.176 3.32386V4.625C54.9474 4.74805 54.6909 4.81017 54.4314 4.80539C54.2154 4.81352 54.0004 4.77406 53.8014 4.68983C53.6024 4.60559 53.4244 4.47863 53.2799 4.31794L54.512 3.72303V1.66193L53.0036 2.33361C53.1551 1.9598 53.4247 1.64576 53.7712 1.43931V1.43931C53.3033 1.55589 52.8847 1.81856 52.5762 2.18918C52.2676 2.55981 52.0853 3.01911 52.0555 3.50041C52.0535 3.77759 52.1063 4.05244 52.2108 4.30915C52.3154 4.56586 52.4697 4.79937 52.6648 4.99626C52.8599 5.19315 53.092 5.34953 53.3477 5.45642C53.6035 5.5633 53.8778 5.61859 54.155 5.61908C54.4121 5.62457 54.6676 5.57727 54.9057 5.48009C55.1439 5.38292 55.3595 5.23794 55.5394 5.05412C55.7192 4.8703 55.8595 4.65154 55.9515 4.41137C56.0434 4.1712 56.0852 3.91472 56.0741 3.65778H56.0511C55.8799 4.04637 55.5983 4.37606 55.2412 4.60581V3.33153L55.721 2.94772L55.2412 2.5639V1.60436C55.3577 1.61064 55.4743 1.59302 55.5838 1.55259C55.6933 1.51215 55.7933 1.44976 55.8778 1.36923C55.9623 1.28871 56.0294 1.19176 56.0751 1.08434C56.1207 0.976925 56.1439 0.861311 56.1432 0.744605V0.744605ZM53.5908 4.10301L53.2415 4.2834C52.9955 3.93944 52.8701 3.52386 52.8846 3.10124C52.8787 2.86628 52.9098 2.63186 52.9767 2.40653L53.5908 2.12635V4.10301ZM57.0451 0.52583L56.431 1.0555L56.9684 1.66193L57.5978 1.15145L57.0451 0.52583ZM58.0047 4.92438L57.7744 5.0779L57.4597 4.76317V2.68672L57.7245 2.47946L57.69 2.43724L57.4673 2.60612L56.9454 1.98434L56.0856 2.58693L56.1163 2.63682L56.3274 2.49481L56.6153 2.85176V4.77085L56.2315 5.06255L56.2698 5.09709L56.4617 4.96276L57.1334 5.57686L58.0469 4.98962L58.0047 4.92438ZM62.8369 4.89751L62.622 5.03952L62.2842 4.71711V2.68672L62.5568 2.47946L62.5222 2.43724L62.2766 2.62147L61.5627 1.98434L60.7682 2.60612L60.0581 1.97666L59.2636 2.59844L58.7263 1.97666L57.8704 2.57925L57.8972 2.62915L58.1122 2.48714L58.4192 2.83641V4.7555L58.1966 4.98962L58.8836 5.56919L59.5361 4.98962L59.2636 4.73247V2.66369L59.444 2.53703L59.9391 2.96307V4.7555L59.7088 4.98962L60.4035 5.56919L61.056 4.97043L60.7835 4.71328V2.66369L60.9524 2.52936L61.4552 2.96307V4.72479L61.2556 4.93205L61.958 5.56919L62.8792 4.93973L62.8369 4.89751ZM65.3356 4.45996L64.6601 4.98962L63.8733 4.36784V3.98402L65.2358 3.02448L64.5488 1.95747L63.0365 2.80187V4.81307L64.0767 5.5807L65.3855 4.52904L65.3356 4.45996ZM63.8579 3.91877V2.42189L64.5334 3.45436L63.8579 3.91877ZM67.9609 3.63475L67.4082 3.19336C67.566 3.06107 67.694 2.89695 67.784 2.71176C67.8739 2.52656 67.9238 2.32446 67.9302 2.11867C67.9302 2.07645 67.9302 1.99585 67.9302 1.92676C67.8968 2.0165 67.8356 2.09321 67.7555 2.14569C67.6754 2.19816 67.5806 2.22366 67.485 2.21846C67.3754 2.21776 67.2676 2.19008 67.1712 2.13786C67.0748 2.08565 66.9928 2.01052 66.9323 1.91909L65.6004 2.68672V3.74989L66.1071 4.1529C65.6004 4.60581 65.4891 4.88216 65.4891 5.13931C65.4872 5.2674 65.5254 5.39288 65.5984 5.49818C65.6713 5.60348 65.7754 5.68333 65.896 5.72655L65.919 5.69201C65.8798 5.66808 65.8478 5.6341 65.8262 5.5936C65.8046 5.55311 65.7942 5.50757 65.7962 5.46172C65.8009 5.42314 65.8132 5.38588 65.8324 5.35207C65.8516 5.31826 65.8772 5.28856 65.9079 5.26467C65.9385 5.24078 65.9736 5.22318 66.0111 5.21286C66.0486 5.20255 66.0877 5.19973 66.1263 5.20456C66.2373 5.21039 66.3456 5.24099 66.4432 5.29412C66.5408 5.34725 66.6253 5.42157 66.6905 5.51162C66.6905 5.51162 67.9647 4.74398 67.9647 4.74398L67.9609 3.63475ZM67.6615 2.74813C67.4162 3.10158 67.1109 3.40943 66.7596 3.65778L66.4372 3.38527V2.33361C66.4952 2.48398 66.5958 2.61416 66.7267 2.70823C66.8576 2.8023 67.0131 2.85618 67.1741 2.86328C67.3439 2.86854 67.512 2.82882 67.6615 2.74813V2.74813ZM67.1088 5.11245C67.0408 4.94617 66.9266 4.80285 66.7797 4.69946C66.6327 4.59607 66.4593 4.53693 66.2798 4.52904C66.0775 4.52018 65.8768 4.56804 65.7002 4.66722C65.9804 4.27712 66.3418 3.95238 66.7596 3.71535L67.1088 4.00705V5.11245Z" fill="black"/>
</g>
<mask id="path-7-outside-1_710_53608" maskUnits="userSpaceOnUse" x="0" y="27.5532" width="82" height="18" fill="black">
<rect fill="white" y="27.5532" width="82" height="18"/>
<path d="M1.02604 30.957H0.279829V28.4759H6.06296V30.957H4.98095L6.52934 36.7588H6.54799L8.93587 28.4759H11.7715L14.1593 36.9827H14.1966L15.8383 30.957H14.7563V28.4759H18.9164V30.957H18.2262L15.204 41.5532H11.6409L9.68208 34.2963H9.64477L7.63 41.5532H4.06685L1.02604 30.957ZM18.6289 39.4079H19.487V34.8H18.6102V32.6733H22.9196V34.1098C23.5539 33.1957 24.5053 32.4495 25.7552 32.4495C25.8671 32.4495 26.0537 32.4681 26.2029 32.4681V35.1545C25.5873 35.1358 25.2515 35.1358 24.8784 35.2104C24.2441 35.2664 23.6658 35.5462 23.33 36.0313C23.0502 36.4417 22.9569 36.9454 22.9569 37.8408V39.4079H23.9829V41.5532H18.6289V39.4079ZM29.5559 41.7398C27.6158 41.7398 26.4218 40.6018 26.4218 38.7363C26.4218 36.8521 27.7837 35.6582 29.873 35.6582C30.8991 35.6582 31.7386 35.994 32.3169 36.4603V36.2365C32.2796 35.1172 31.5147 34.4269 30.0782 34.4269C29.0709 34.4269 28.1941 34.6881 27.3359 35.1358V33.0464C28.3993 32.7106 29.5372 32.4681 31.1229 32.4681C34.5742 32.4681 35.8054 34.0725 35.8054 35.6209V39.4079H36.7195V41.5532H32.3542V40.5272C31.7386 41.3853 30.6752 41.7398 29.5559 41.7398ZM31.1043 39.7623C31.8878 39.7623 32.3915 39.3519 32.3915 38.5684C32.3915 37.8035 31.8878 37.3558 31.1229 37.3558C30.3394 37.3558 29.7798 37.8035 29.7798 38.5684C29.7798 39.3519 30.3021 39.7623 31.1043 39.7623ZM37.2806 42.8218H38.1574V34.8H37.2806V32.6733H41.6086V33.6061C42.5041 32.8412 43.3249 32.4681 44.3323 32.4681C46.7015 32.4681 48.138 34.6694 48.138 37.1133C48.138 39.9489 46.3284 41.7771 44.2764 41.7771C43.3249 41.7771 42.4854 41.3853 41.6086 40.6205V42.8218H42.4481V44.9485H37.2806V42.8218ZM44.6681 37.1692C44.6681 35.882 44.3137 34.6321 43.1384 34.6321C42.187 34.6321 41.6086 35.5276 41.6086 37.02C41.6086 38.4751 42.1123 39.5571 43.157 39.5571C44.2204 39.5571 44.6681 38.4751 44.6681 37.1692ZM48.7215 42.8218H49.5983V34.8H48.7215V32.6733H53.0496V33.6061C53.945 32.8412 54.7659 32.4681 55.7732 32.4681C58.1425 32.4681 59.5789 34.6694 59.5789 37.1133C59.5789 39.9489 57.7693 41.7771 55.7173 41.7771C54.7659 41.7771 53.9264 41.3853 53.0496 40.6205V42.8218H53.8891V44.9485H48.7215V42.8218ZM56.109 37.1692C56.109 35.882 55.7546 34.6321 54.5793 34.6321C53.6279 34.6321 53.0496 35.5276 53.0496 37.02C53.0496 38.4751 53.5533 39.5571 54.598 39.5571C55.6613 39.5571 56.109 38.4751 56.109 37.1692ZM69.8784 38.7736C69.2814 40.807 67.4718 41.7771 65.4011 41.7771C64.0206 41.7771 62.7147 41.404 61.8006 40.5458C60.8865 39.669 60.4015 38.4751 60.4015 37.076C60.4015 34.2217 62.5282 32.4681 65.1772 32.4681C67.8822 32.4681 69.897 34.4456 69.897 37.2625C69.897 37.4864 69.8784 37.6916 69.8597 37.9154H63.89C63.9833 39.1467 64.6922 39.7437 65.6996 39.7437C66.5204 39.7437 67.0428 39.3706 67.3226 38.7736H69.8784ZM64.1512 35.341C63.9646 35.6582 63.89 36.0499 63.8714 36.5723H66.7629V36.4603C66.6883 35.4343 66.2965 34.6321 65.3265 34.6321C64.8041 34.6321 64.3937 34.8746 64.1512 35.341ZM70.5125 37.0946C70.5125 34.5015 72.0049 32.4681 74.4114 32.4681C75.4561 32.4681 76.277 32.8599 77.0232 33.5688V30.6026H76.0158V28.4759H80.4744V39.4265H81.3885V41.5532H77.0418V40.6018C76.2583 41.3294 75.4561 41.7771 74.3368 41.7771C71.9303 41.7771 70.5125 39.6504 70.5125 37.0946ZM77.0791 37.0013C77.0791 35.8447 76.5941 34.6321 75.5308 34.6321C74.4487 34.6321 73.9637 35.8261 73.9637 37.0946C73.9637 38.3259 74.4114 39.5571 75.5308 39.5571C76.6687 39.5571 77.0791 38.1393 77.0791 37.0013Z"/>
</mask>
<path d="M1.02604 30.957H0.279829V28.4759H6.06296V30.957H4.98095L6.52934 36.7588H6.54799L8.93587 28.4759H11.7715L14.1593 36.9827H14.1966L15.8383 30.957H14.7563V28.4759H18.9164V30.957H18.2262L15.204 41.5532H11.6409L9.68208 34.2963H9.64477L7.63 41.5532H4.06685L1.02604 30.957ZM18.6289 39.4079H19.487V34.8H18.6102V32.6733H22.9196V34.1098C23.5539 33.1957 24.5053 32.4495 25.7552 32.4495C25.8671 32.4495 26.0537 32.4681 26.2029 32.4681V35.1545C25.5873 35.1358 25.2515 35.1358 24.8784 35.2104C24.2441 35.2664 23.6658 35.5462 23.33 36.0313C23.0502 36.4417 22.9569 36.9454 22.9569 37.8408V39.4079H23.9829V41.5532H18.6289V39.4079ZM29.5559 41.7398C27.6158 41.7398 26.4218 40.6018 26.4218 38.7363C26.4218 36.8521 27.7837 35.6582 29.873 35.6582C30.8991 35.6582 31.7386 35.994 32.3169 36.4603V36.2365C32.2796 35.1172 31.5147 34.4269 30.0782 34.4269C29.0709 34.4269 28.1941 34.6881 27.3359 35.1358V33.0464C28.3993 32.7106 29.5372 32.4681 31.1229 32.4681C34.5742 32.4681 35.8054 34.0725 35.8054 35.6209V39.4079H36.7195V41.5532H32.3542V40.5272C31.7386 41.3853 30.6752 41.7398 29.5559 41.7398ZM31.1043 39.7623C31.8878 39.7623 32.3915 39.3519 32.3915 38.5684C32.3915 37.8035 31.8878 37.3558 31.1229 37.3558C30.3394 37.3558 29.7798 37.8035 29.7798 38.5684C29.7798 39.3519 30.3021 39.7623 31.1043 39.7623ZM37.2806 42.8218H38.1574V34.8H37.2806V32.6733H41.6086V33.6061C42.5041 32.8412 43.3249 32.4681 44.3323 32.4681C46.7015 32.4681 48.138 34.6694 48.138 37.1133C48.138 39.9489 46.3284 41.7771 44.2764 41.7771C43.3249 41.7771 42.4854 41.3853 41.6086 40.6205V42.8218H42.4481V44.9485H37.2806V42.8218ZM44.6681 37.1692C44.6681 35.882 44.3137 34.6321 43.1384 34.6321C42.187 34.6321 41.6086 35.5276 41.6086 37.02C41.6086 38.4751 42.1123 39.5571 43.157 39.5571C44.2204 39.5571 44.6681 38.4751 44.6681 37.1692ZM48.7215 42.8218H49.5983V34.8H48.7215V32.6733H53.0496V33.6061C53.945 32.8412 54.7659 32.4681 55.7732 32.4681C58.1425 32.4681 59.5789 34.6694 59.5789 37.1133C59.5789 39.9489 57.7693 41.7771 55.7173 41.7771C54.7659 41.7771 53.9264 41.3853 53.0496 40.6205V42.8218H53.8891V44.9485H48.7215V42.8218ZM56.109 37.1692C56.109 35.882 55.7546 34.6321 54.5793 34.6321C53.6279 34.6321 53.0496 35.5276 53.0496 37.02C53.0496 38.4751 53.5533 39.5571 54.598 39.5571C55.6613 39.5571 56.109 38.4751 56.109 37.1692ZM69.8784 38.7736C69.2814 40.807 67.4718 41.7771 65.4011 41.7771C64.0206 41.7771 62.7147 41.404 61.8006 40.5458C60.8865 39.669 60.4015 38.4751 60.4015 37.076C60.4015 34.2217 62.5282 32.4681 65.1772 32.4681C67.8822 32.4681 69.897 34.4456 69.897 37.2625C69.897 37.4864 69.8784 37.6916 69.8597 37.9154H63.89C63.9833 39.1467 64.6922 39.7437 65.6996 39.7437C66.5204 39.7437 67.0428 39.3706 67.3226 38.7736H69.8784ZM64.1512 35.341C63.9646 35.6582 63.89 36.0499 63.8714 36.5723H66.7629V36.4603C66.6883 35.4343 66.2965 34.6321 65.3265 34.6321C64.8041 34.6321 64.3937 34.8746 64.1512 35.341ZM70.5125 37.0946C70.5125 34.5015 72.0049 32.4681 74.4114 32.4681C75.4561 32.4681 76.277 32.8599 77.0232 33.5688V30.6026H76.0158V28.4759H80.4744V39.4265H81.3885V41.5532H77.0418V40.6018C76.2583 41.3294 75.4561 41.7771 74.3368 41.7771C71.9303 41.7771 70.5125 39.6504 70.5125 37.0946ZM77.0791 37.0013C77.0791 35.8447 76.5941 34.6321 75.5308 34.6321C74.4487 34.6321 73.9637 35.8261 73.9637 37.0946C73.9637 38.3259 74.4114 39.5571 75.5308 39.5571C76.6687 39.5571 77.0791 38.1393 77.0791 37.0013Z" fill="black"/>
<path d="M1.02604 30.957L1.14413 30.9232L1.1186 30.8342H1.02604V30.957ZM0.279829 30.957H0.156976V31.0799H0.279829V30.957ZM0.279829 28.4759V28.353H0.156976V28.4759H0.279829ZM6.06296 28.4759H6.18581V28.353H6.06296V28.4759ZM6.06296 30.957V31.0799H6.18581V30.957H6.06296ZM4.98095 30.957V30.8342H4.82101L4.86225 30.9887L4.98095 30.957ZM6.52934 36.7588L6.41064 36.7905L6.43497 36.8817H6.52934V36.7588ZM6.54799 36.7588V36.8817H6.64043L6.66604 36.7929L6.54799 36.7588ZM8.93587 28.4759V28.353H8.84343L8.81782 28.4419L8.93587 28.4759ZM11.7715 28.4759L11.8897 28.4427L11.8646 28.353H11.7715V28.4759ZM14.1593 36.9827L14.0411 37.0159L14.0662 37.1055H14.1593V36.9827ZM14.1966 36.9827V37.1055H14.2905L14.3152 37.015L14.1966 36.9827ZM15.8383 30.957L15.9568 30.9893L15.9991 30.8342H15.8383V30.957ZM14.7563 30.957H14.6335V31.0799H14.7563V30.957ZM14.7563 28.4759V28.353H14.6335V28.4759H14.7563ZM18.9164 28.4759H19.0393V28.353H18.9164V28.4759ZM18.9164 30.957V31.0799H19.0393V30.957H18.9164ZM18.2262 30.957V30.8342H18.1335L18.108 30.9233L18.2262 30.957ZM15.204 41.5532V41.6761H15.2967L15.3222 41.5869L15.204 41.5532ZM11.6409 41.5532L11.5223 41.5852L11.5468 41.6761H11.6409V41.5532ZM9.68208 34.2963L9.80069 34.2643L9.77617 34.1735H9.68208V34.2963ZM9.64477 34.2963V34.1735H9.55138L9.52639 34.2635L9.64477 34.2963ZM7.63 41.5532V41.6761H7.72339L7.74837 41.5861L7.63 41.5532ZM4.06685 41.5532L3.94876 41.5871L3.97429 41.6761H4.06685V41.5532ZM1.02604 30.957V30.8342H0.279829V30.957V31.0799H1.02604V30.957ZM0.279829 30.957H0.402682V28.4759H0.279829H0.156976V30.957H0.279829ZM0.279829 28.4759V28.5987H6.06296V28.4759V28.353H0.279829V28.4759ZM6.06296 28.4759H5.9401V30.957H6.06296H6.18581V28.4759H6.06296ZM6.06296 30.957V30.8342H4.98095V30.957V31.0799H6.06296V30.957ZM4.98095 30.957L4.86225 30.9887L6.41064 36.7905L6.52934 36.7588L6.64804 36.7271L5.09965 30.9254L4.98095 30.957ZM6.52934 36.7588V36.8817H6.54799V36.7588V36.636H6.52934V36.7588ZM6.54799 36.7588L6.66604 36.7929L9.05391 28.5099L8.93587 28.4759L8.81782 28.4419L6.42995 36.7248L6.54799 36.7588ZM8.93587 28.4759V28.5987H11.7715V28.4759V28.353H8.93587V28.4759ZM11.7715 28.4759L11.6532 28.5091L14.0411 37.0159L14.1593 36.9827L14.2776 36.9495L11.8897 28.4427L11.7715 28.4759ZM14.1593 36.9827V37.1055H14.1966V36.9827V36.8598H14.1593V36.9827ZM14.1966 36.9827L14.3152 37.015L15.9568 30.9893L15.8383 30.957L15.7198 30.9247L14.0781 36.9504L14.1966 36.9827ZM15.8383 30.957V30.8342H14.7563V30.957V31.0799H15.8383V30.957ZM14.7563 30.957H14.8792V28.4759H14.7563H14.6335V30.957H14.7563ZM14.7563 28.4759V28.5987H18.9164V28.4759V28.353H14.7563V28.4759ZM18.9164 28.4759H18.7936V30.957H18.9164H19.0393V28.4759H18.9164ZM18.9164 30.957V30.8342H18.2262V30.957V31.0799H18.9164V30.957ZM18.2262 30.957L18.108 30.9233L15.0859 41.5195L15.204 41.5532L15.3222 41.5869L18.3443 30.9907L18.2262 30.957ZM15.204 41.5532V41.4304H11.6409V41.5532V41.6761H15.204V41.5532ZM11.6409 41.5532L11.7595 41.5212L9.80069 34.2643L9.68208 34.2963L9.56347 34.3283L11.5223 41.5852L11.6409 41.5532ZM9.68208 34.2963V34.1735H9.64477V34.2963V34.4192H9.68208V34.2963ZM9.64477 34.2963L9.52639 34.2635L7.51162 41.5204L7.63 41.5532L7.74837 41.5861L9.76314 34.3292L9.64477 34.2963ZM7.63 41.5532V41.4304H4.06685V41.5532V41.6761H7.63V41.5532ZM4.06685 41.5532L4.18493 41.5193L1.14413 30.9232L1.02604 30.957L0.907952 30.9909L3.94876 41.5871L4.06685 41.5532ZM18.6289 39.4079V39.285H18.506V39.4079H18.6289ZM19.487 39.4079V39.5307H19.6099V39.4079H19.487ZM19.487 34.8H19.6099V34.6772H19.487V34.8ZM18.6102 34.8H18.4874V34.9229H18.6102V34.8ZM18.6102 32.6733V32.5505H18.4874V32.6733H18.6102ZM22.9196 32.6733H23.0424V32.5505H22.9196V32.6733ZM22.9196 34.1098H22.7967V34.5023L23.0205 34.1798L22.9196 34.1098ZM26.2029 32.4681H26.3258V32.3453H26.2029V32.4681ZM26.2029 35.1545L26.1992 35.2773L26.3258 35.2811V35.1545H26.2029ZM24.8784 35.2104L24.8892 35.3335L24.9025 35.3309L24.8784 35.2104ZM23.33 36.0313L23.229 35.9613L23.2285 35.9621L23.33 36.0313ZM22.9569 39.4079H22.834V39.5307H22.9569V39.4079ZM23.9829 39.4079H24.1058V39.285H23.9829V39.4079ZM23.9829 41.5532V41.6761H24.1058V41.5532H23.9829ZM18.6289 41.5532H18.506V41.6761H18.6289V41.5532ZM18.6289 39.4079V39.5307H19.487V39.4079V39.285H18.6289V39.4079ZM19.487 39.4079H19.6099V34.8H19.487H19.3642V39.4079H19.487ZM19.487 34.8V34.6772H18.6102V34.8V34.9229H19.487V34.8ZM18.6102 34.8H18.7331V32.6733H18.6102H18.4874V34.8H18.6102ZM18.6102 32.6733V32.7962H22.9196V32.6733V32.5505H18.6102V32.6733ZM22.9196 32.6733H22.7967V34.1098H22.9196H23.0424V32.6733H22.9196ZM22.9196 34.1098L23.0205 34.1798C23.6414 33.285 24.5598 32.5723 25.7552 32.5723V32.4495V32.3266C24.4507 32.3266 23.4663 33.1063 22.8186 34.0397L22.9196 34.1098ZM25.7552 32.4495V32.5723C25.8066 32.5723 25.8766 32.5767 25.9578 32.5814C26.0367 32.5861 26.1241 32.591 26.2029 32.591V32.4681V32.3453C26.1324 32.3453 26.052 32.3408 25.9723 32.3361C25.8949 32.3316 25.8157 32.3266 25.7552 32.3266V32.4495ZM26.2029 32.4681H26.0801V35.1545H26.2029H26.3258V32.4681H26.2029ZM26.2029 35.1545L26.2066 35.0317C25.5917 35.013 25.2429 35.0123 24.8543 35.09L24.8784 35.2104L24.9025 35.3309C25.2601 35.2594 25.5829 35.2586 26.1992 35.2773L26.2029 35.1545ZM24.8784 35.2104L24.8676 35.0881C24.2062 35.1464 23.5904 35.4394 23.229 35.9613L23.33 36.0313L23.431 36.1012C23.7412 35.6531 24.282 35.3864 24.8892 35.3328L24.8784 35.2104ZM23.33 36.0313L23.2285 35.9621C22.9267 36.4047 22.834 36.9406 22.834 37.8408H22.9569H23.0797C23.0797 36.9501 23.1737 36.4786 23.4315 36.1005L23.33 36.0313ZM22.9569 37.8408H22.834V39.4079H22.9569H23.0797V37.8408H22.9569ZM22.9569 39.4079V39.5307H23.9829V39.4079V39.285H22.9569V39.4079ZM23.9829 39.4079H23.8601V41.5532H23.9829H24.1058V39.4079H23.9829ZM23.9829 41.5532V41.4304H18.6289V41.5532V41.6761H23.9829V41.5532ZM18.6289 41.5532H18.7517V39.4079H18.6289H18.506V41.5532H18.6289ZM32.3169 36.4603L32.2398 36.556L32.4397 36.7172V36.4603H32.3169ZM32.3169 36.2365H32.4398L32.4397 36.2324L32.3169 36.2365ZM27.3359 35.1358H27.2131V35.3385L27.3928 35.2447L27.3359 35.1358ZM27.3359 33.0464L27.2989 32.9293L27.2131 32.9564V33.0464H27.3359ZM35.8054 39.4079H35.6826V39.5307H35.8054V39.4079ZM36.7195 39.4079H36.8424V39.285H36.7195V39.4079ZM36.7195 41.5532V41.6761H36.8424V41.5532H36.7195ZM32.3542 41.5532H32.2313V41.6761H32.3542V41.5532ZM32.3542 40.5272H32.477V40.1452L32.2544 40.4556L32.3542 40.5272ZM29.5559 41.7398V41.6169C28.6096 41.6169 27.8593 41.3398 27.3462 40.8488C26.8339 40.3586 26.5447 39.6422 26.5447 38.7363H26.4218H26.299C26.299 39.6959 26.6067 40.4813 27.1764 41.0264C27.7453 41.5708 28.562 41.8626 29.5559 41.8626V41.7398ZM26.4218 38.7363H26.5447C26.5447 37.8256 26.8728 37.0909 27.4455 36.5825C28.0197 36.0728 28.8512 35.781 29.873 35.781V35.6582V35.5353C28.8055 35.5353 27.9114 35.8405 27.2824 36.3988C26.6518 36.9585 26.299 37.7628 26.299 38.7363H26.4218ZM29.873 35.6582V35.781C30.872 35.781 31.6841 36.1078 32.2398 36.556L32.3169 36.4603L32.394 36.3647C31.7931 35.8801 30.9261 35.5353 29.873 35.5353V35.6582ZM32.3169 36.4603H32.4397V36.2365H32.3169H32.194V36.4603H32.3169ZM32.3169 36.2365L32.4397 36.2324C32.4201 35.6441 32.2078 35.1562 31.8008 34.8175C31.3964 34.4809 30.8147 34.3041 30.0782 34.3041V34.4269V34.5498C30.7782 34.5498 31.2972 34.718 31.6437 35.0064C31.9876 35.2926 32.1764 35.7096 32.1941 36.2406L32.3169 36.2365ZM30.0782 34.4269V34.3041C29.0476 34.3041 28.1514 34.5718 27.2791 35.0269L27.3359 35.1358L27.3928 35.2447C28.2367 34.8044 29.0941 34.5498 30.0782 34.5498V34.4269ZM27.3359 35.1358H27.4588V33.0464H27.3359H27.2131V35.1358H27.3359ZM27.3359 33.0464L27.3729 33.1636C28.4263 32.8309 29.5517 32.591 31.1229 32.591V32.4681V32.3453C29.5228 32.3453 28.3722 32.5903 27.2989 32.9293L27.3359 33.0464ZM31.1229 32.4681V32.591C32.831 32.591 33.9709 32.9881 34.6814 33.5596C35.3894 34.1291 35.6826 34.881 35.6826 35.6209H35.8054H35.9283C35.9283 34.8123 35.6058 33.9878 34.8354 33.3681C34.0674 32.7503 32.8661 32.3453 31.1229 32.3453V32.4681ZM35.8054 35.6209H35.6826V39.4079H35.8054H35.9283V35.6209H35.8054ZM35.8054 39.4079V39.5307H36.7195V39.4079V39.285H35.8054V39.4079ZM36.7195 39.4079H36.5967V41.5532H36.7195H36.8424V39.4079H36.7195ZM36.7195 41.5532V41.4304H32.3542V41.5532V41.6761H36.7195V41.5532ZM32.3542 41.5532H32.477V40.5272H32.3542H32.2313V41.5532H32.3542ZM32.3542 40.5272L32.2544 40.4556C31.6705 41.2694 30.6534 41.6169 29.5559 41.6169V41.7398V41.8626C30.6971 41.8626 31.8066 41.5012 32.454 40.5988L32.3542 40.5272ZM31.1043 39.7623V39.8852C31.5163 39.8852 31.8708 39.7772 32.1237 39.5507C32.3786 39.3223 32.5144 38.9876 32.5144 38.5684H32.3915H32.2686C32.2686 38.9326 32.1525 39.195 31.9597 39.3677C31.7649 39.5422 31.4758 39.6395 31.1043 39.6395V39.7623ZM32.3915 38.5684H32.5144C32.5144 38.1579 32.3784 37.8202 32.128 37.5856C31.8787 37.352 31.5289 37.2329 31.1229 37.2329V37.3558V37.4786C31.4818 37.4786 31.7663 37.5834 31.9601 37.7649C32.1528 37.9454 32.2686 38.214 32.2686 38.5684H32.3915ZM31.1229 37.3558V37.2329C30.7086 37.2329 30.3418 37.3514 30.0768 37.5827C29.8097 37.8157 29.6569 38.1538 29.6569 38.5684H29.7798H29.9026C29.9026 38.2181 30.0296 37.9499 30.2383 37.7678C30.449 37.584 30.7538 37.4786 31.1229 37.4786V37.3558ZM29.7798 38.5684H29.6569C29.6569 38.9891 29.7983 39.324 30.0606 39.5519C30.3204 39.7776 30.6837 39.8852 31.1043 39.8852V39.7623V39.6395C30.7227 39.6395 30.4237 39.5418 30.2218 39.3664C30.0224 39.1932 29.9026 38.9312 29.9026 38.5684H29.7798ZM37.2806 42.8218V42.6989H37.1578V42.8218H37.2806ZM38.1574 42.8218V42.9446H38.2803V42.8218H38.1574ZM38.1574 34.8H38.2803V34.6772H38.1574V34.8ZM37.2806 34.8H37.1578V34.9229H37.2806V34.8ZM37.2806 32.6733V32.5505H37.1578V32.6733H37.2806ZM41.6086 32.6733H41.7315V32.5505H41.6086V32.6733ZM41.6086 33.6061H41.4858V33.8726L41.6884 33.6995L41.6086 33.6061ZM41.6086 40.6205L41.6894 40.5279L41.4858 40.3503V40.6205H41.6086ZM41.6086 42.8218H41.4858V42.9446H41.6086V42.8218ZM42.4481 42.8218H42.571V42.6989H42.4481V42.8218ZM42.4481 44.9485V45.0713H42.571V44.9485H42.4481ZM37.2806 44.9485H37.1578V45.0713H37.2806V44.9485ZM37.2806 42.8218V42.9446H38.1574V42.8218V42.6989H37.2806V42.8218ZM38.1574 42.8218H38.2803V34.8H38.1574H38.0346V42.8218H38.1574ZM38.1574 34.8V34.6772H37.2806V34.8V34.9229H38.1574V34.8ZM37.2806 34.8H37.4035V32.6733H37.2806H37.1578V34.8H37.2806ZM37.2806 32.6733V32.7962H41.6086V32.6733V32.5505H37.2806V32.6733ZM41.6086 32.6733H41.4858V33.6061H41.6086H41.7315V32.6733H41.6086ZM41.6086 33.6061L41.6884 33.6995C42.5687 32.9476 43.3623 32.591 44.3323 32.591V32.4681V32.3453C43.2876 32.3453 42.4395 32.7348 41.5289 33.5127L41.6086 33.6061ZM44.3323 32.4681V32.591C45.4746 32.591 46.3914 33.1201 47.0261 33.9489C47.6625 34.7801 48.0151 35.914 48.0151 37.1133H48.138H48.2608C48.2608 35.8687 47.8953 34.68 47.2212 33.7996C46.5453 32.9168 45.5593 32.3453 44.3323 32.3453V32.4681ZM48.138 37.1133H48.0151C48.0151 39.8971 46.2455 41.6542 44.2764 41.6542V41.7771V41.8999C46.4114 41.8999 48.2608 40.0006 48.2608 37.1133H48.138ZM44.2764 41.7771V41.6542C43.3638 41.6542 42.5519 41.2803 41.6894 40.5279L41.6086 40.6205L41.5279 40.713C42.419 41.4904 43.286 41.8999 44.2764 41.8999V41.7771ZM41.6086 40.6205H41.4858V42.8218H41.6086H41.7315V40.6205H41.6086ZM41.6086 42.8218V42.9446H42.4481V42.8218V42.6989H41.6086V42.8218ZM42.4481 42.8218H42.3253V44.9485H42.4481H42.571V42.8218H42.4481ZM42.4481 44.9485V44.8256H37.2806V44.9485V45.0713H42.4481V44.9485ZM37.2806 44.9485H37.4035V42.8218H37.2806H37.1578V44.9485H37.2806ZM44.6681 37.1692H44.791C44.791 36.5179 44.7018 35.8615 44.454 35.3633C44.3293 35.1127 44.1626 34.8983 43.9431 34.7465C43.7226 34.594 43.4553 34.5093 43.1384 34.5093V34.6321V34.755C43.4091 34.755 43.6269 34.8265 43.8033 34.9486C43.9809 35.0714 44.1231 35.2498 44.234 35.4727C44.4572 35.9212 44.5453 36.5333 44.5453 37.1692H44.6681ZM43.1384 34.6321V34.5093C42.6175 34.5093 42.1976 34.7574 41.9134 35.2C41.6326 35.6373 41.4858 36.2604 41.4858 37.02H41.6086H41.7315C41.7315 36.2872 41.8739 35.7163 42.1201 35.3328C42.3629 34.9546 42.7079 34.755 43.1384 34.755V34.6321ZM41.6086 37.02H41.4858C41.4858 37.7589 41.6132 38.4169 41.8842 38.8948C42.1585 39.3786 42.5829 39.68 43.157 39.68V39.5571V39.4343C42.6865 39.4343 42.3367 39.1946 42.098 38.7736C41.8559 38.3468 41.7315 37.7362 41.7315 37.02H41.6086ZM43.157 39.5571V39.68C43.74 39.68 44.1554 39.3791 44.4183 38.9133C44.6776 38.4539 44.791 37.8332 44.791 37.1692H44.6681H44.5453C44.5453 37.8111 44.4347 38.3843 44.2043 38.7925C43.9776 39.1941 43.6374 39.4343 43.157 39.4343V39.5571ZM48.7215 42.8218V42.6989H48.5987V42.8218H48.7215ZM49.5983 42.8218V42.9446H49.7212V42.8218H49.5983ZM49.5983 34.8H49.7212V34.6772H49.5983V34.8ZM48.7215 34.8H48.5987V34.9229H48.7215V34.8ZM48.7215 32.6733V32.5505H48.5987V32.6733H48.7215ZM53.0496 32.6733H53.1724V32.5505H53.0496V32.6733ZM53.0496 33.6061H52.9267V33.8726L53.1294 33.6995L53.0496 33.6061ZM53.0496 40.6205L53.1303 40.5279L52.9267 40.3503V40.6205H53.0496ZM53.0496 42.8218H52.9267V42.9446H53.0496V42.8218ZM53.8891 42.8218H54.0119V42.6989H53.8891V42.8218ZM53.8891 44.9485V45.0713H54.0119V44.9485H53.8891ZM48.7215 44.9485H48.5987V45.0713H48.7215V44.9485ZM48.7215 42.8218V42.9446H49.5983V42.8218V42.6989H48.7215V42.8218ZM49.5983 42.8218H49.7212V34.8H49.5983H49.4755V42.8218H49.5983ZM49.5983 34.8V34.6772H48.7215V34.8V34.9229H49.5983V34.8ZM48.7215 34.8H48.8444V32.6733H48.7215H48.5987V34.8H48.7215ZM48.7215 32.6733V32.7962H53.0496V32.6733V32.5505H48.7215V32.6733ZM53.0496 32.6733H52.9267V33.6061H53.0496H53.1724V32.6733H53.0496ZM53.0496 33.6061L53.1294 33.6995C54.0096 32.9476 54.8032 32.591 55.7732 32.591V32.4681V32.3453C54.7285 32.3453 53.8805 32.7348 52.9698 33.5127L53.0496 33.6061ZM55.7732 32.4681V32.591C56.9155 32.591 57.8323 33.1201 58.467 33.9489C59.1034 34.7801 59.4561 35.914 59.4561 37.1133H59.5789H59.7018C59.7018 35.8687 59.3362 34.68 58.6621 33.7996C57.9862 32.9168 57.0002 32.3453 55.7732 32.3453V32.4681ZM59.5789 37.1133H59.4561C59.4561 39.8971 57.6864 41.6542 55.7173 41.6542V41.7771V41.8999C57.8523 41.8999 59.7018 40.0006 59.7018 37.1133H59.5789ZM55.7173 41.7771V41.6542C54.8048 41.6542 53.9928 41.2803 53.1303 40.5279L53.0496 40.6205L52.9688 40.713C53.8599 41.4904 54.7269 41.8999 55.7173 41.8999V41.7771ZM53.0496 40.6205H52.9267V42.8218H53.0496H53.1724V40.6205H53.0496ZM53.0496 42.8218V42.9446H53.8891V42.8218V42.6989H53.0496V42.8218ZM53.8891 42.8218H53.7662V44.9485H53.8891H54.0119V42.8218H53.8891ZM53.8891 44.9485V44.8256H48.7215V44.9485V45.0713H53.8891V44.9485ZM48.7215 44.9485H48.8444V42.8218H48.7215H48.5987V44.9485H48.7215ZM56.109 37.1692H56.2319C56.2319 36.5179 56.1428 35.8615 55.8949 35.3633C55.7702 35.1127 55.6035 34.8983 55.384 34.7465C55.1635 34.594 54.8962 34.5093 54.5793 34.5093V34.6321V34.755C54.85 34.755 55.0678 34.8265 55.2443 34.9486C55.4218 35.0714 55.564 35.2498 55.6749 35.4727C55.8981 35.9212 55.9862 36.5333 55.9862 37.1692H56.109ZM54.5793 34.6321V34.5093C54.0584 34.5093 53.6385 34.7574 53.3543 35.2C53.0735 35.6373 52.9267 36.2604 52.9267 37.02H53.0496H53.1724C53.1724 36.2872 53.3148 35.7163 53.561 35.3328C53.8038 34.9546 54.1488 34.755 54.5793 34.755V34.6321ZM53.0496 37.02H52.9267C52.9267 37.7589 53.0541 38.4169 53.3251 38.8948C53.5994 39.3786 54.0238 39.68 54.598 39.68V39.5571V39.4343C54.1274 39.4343 53.7776 39.1946 53.5389 38.7736C53.2968 38.3468 53.1724 37.7362 53.1724 37.02H53.0496ZM54.598 39.5571V39.68C55.1809 39.68 55.5963 39.3791 55.8592 38.9133C56.1185 38.4539 56.2319 37.8332 56.2319 37.1692H56.109H55.9862C55.9862 37.8111 55.8757 38.3843 55.6453 38.7925C55.4185 39.1941 55.0783 39.4343 54.598 39.4343V39.5571ZM69.8784 38.7736L69.9962 38.8082L70.0425 38.6507H69.8784V38.7736ZM61.8006 40.5458L61.7156 40.6345L61.7165 40.6354L61.8006 40.5458ZM69.8597 37.9154V38.0383H69.9727L69.9821 37.9257L69.8597 37.9154ZM63.89 37.9154V37.7926H63.7575L63.7675 37.9247L63.89 37.9154ZM67.3226 38.7736V38.6507H67.2445L67.2113 38.7214L67.3226 38.7736ZM64.1512 35.341L64.2572 35.4034L64.2602 35.3977L64.1512 35.341ZM63.8714 36.5723L63.7486 36.5679L63.744 36.6951H63.8714V36.5723ZM66.7629 36.5723V36.6951H66.8858V36.5723H66.7629ZM66.7629 36.4603H66.8861L66.8855 36.4514L66.7629 36.4603ZM69.8784 38.7736L69.7605 38.739C69.1832 40.7054 67.4343 41.6542 65.4011 41.6542V41.7771V41.8999C67.5094 41.8999 69.3796 40.9086 69.9962 38.8082L69.8784 38.7736ZM65.4011 41.7771V41.6542C64.0403 41.6542 62.7688 41.2863 61.8847 40.4563L61.8006 40.5458L61.7165 40.6354C62.6606 41.5217 64.0009 41.8999 65.4011 41.8999V41.7771ZM61.8006 40.5458L61.8857 40.4572C60.9981 39.6059 60.5243 38.4451 60.5243 37.076H60.4015H60.2786C60.2786 38.5051 60.7749 39.7322 61.7156 40.6345L61.8006 40.5458ZM60.4015 37.076H60.5243C60.5243 35.6812 61.0431 34.5627 61.8792 33.792C62.7166 33.0203 63.8796 32.591 65.1772 32.591V32.4681V32.3453C63.8258 32.3453 62.601 32.7927 61.7127 33.6114C60.8233 34.4311 60.2786 35.6165 60.2786 37.076H60.4015ZM65.1772 32.4681V32.591C67.8138 32.591 69.7742 34.5128 69.7742 37.2625H69.897H70.0199C70.0199 34.3784 67.9507 32.3453 65.1772 32.3453V32.4681ZM69.897 37.2625H69.7742C69.7742 37.4802 69.7561 37.6798 69.7373 37.9052L69.8597 37.9154L69.9821 37.9257C70.0007 37.7033 70.0199 37.4926 70.0199 37.2625H69.897ZM69.8597 37.9154V37.7926H63.89V37.9154V38.0383H69.8597V37.9154ZM63.89 37.9154L63.7675 37.9247C63.8158 38.562 64.0248 39.0505 64.3668 39.3798C64.7092 39.7095 65.1713 39.8665 65.6996 39.8665V39.7437V39.6208C65.2205 39.6208 64.8244 39.4794 64.5372 39.2028C64.2496 38.9258 64.0575 38.5002 64.0125 37.9062L63.89 37.9154ZM65.6996 39.7437V39.8665C66.129 39.8665 66.4883 39.7687 66.7792 39.5866C67.0702 39.4044 67.2854 39.1424 67.4338 38.8257L67.3226 38.7736L67.2113 38.7214C67.08 39.0017 66.8941 39.2248 66.6488 39.3784C66.4033 39.532 66.091 39.6208 65.6996 39.6208V39.7437ZM67.3226 38.7736V38.8964H69.8784V38.7736V38.6507H67.3226V38.7736ZM64.1512 35.341L64.0453 35.2787C63.8433 35.6221 63.7675 36.0383 63.7486 36.5679L63.8714 36.5723L63.9941 36.5767C64.0125 36.0615 64.086 35.6942 64.2571 35.4033L64.1512 35.341ZM63.8714 36.5723V36.6951H66.7629V36.5723V36.4494H63.8714V36.5723ZM66.7629 36.5723H66.8858V36.4603H66.7629H66.6401V36.5723H66.7629ZM66.7629 36.4603L66.8855 36.4514C66.8474 35.9283 66.7279 35.446 66.4814 35.0914C66.2299 34.7296 65.8518 34.5093 65.3265 34.5093V34.6321V34.755C65.7712 34.755 66.074 34.9357 66.2796 35.2316C66.4902 35.5345 66.6038 35.9663 66.6404 36.4692L66.7629 36.4603ZM65.3265 34.6321V34.5093C64.7593 34.5093 64.3063 34.7764 64.0422 35.2843L64.1512 35.341L64.2602 35.3977C64.4811 34.9729 64.849 34.755 65.3265 34.755V34.6321ZM77.0232 33.5688L76.9386 33.6578L77.146 33.8549V33.5688H77.0232ZM77.0232 30.6026H77.146V30.4797H77.0232V30.6026ZM76.0158 30.6026H75.8929V30.7254H76.0158V30.6026ZM76.0158 28.4759V28.353H75.8929V28.4759H76.0158ZM80.4744 28.4759H80.5972V28.353H80.4744V28.4759ZM80.4744 39.4265H80.3515V39.5494H80.4744V39.4265ZM81.3885 39.4265H81.5114V39.3037H81.3885V39.4265ZM81.3885 41.5532V41.6761H81.5114V41.5532H81.3885ZM77.0418 41.5532H76.919V41.6761H77.0418V41.5532ZM77.0418 40.6018H77.1647V40.3201L76.9582 40.5118L77.0418 40.6018ZM70.5125 37.0946H70.6353C70.6353 35.8206 71.002 34.6929 71.655 33.8863C72.3062 33.0819 73.2461 32.591 74.4114 32.591V32.4681V32.3453C73.1702 32.3453 72.1607 32.8711 71.464 33.7317C70.7692 34.59 70.3896 35.7755 70.3896 37.0946H70.5125ZM74.4114 32.4681V32.591C75.4195 32.591 76.2112 32.9668 76.9386 33.6578L77.0232 33.5688L77.1078 33.4797C76.3428 32.7529 75.4928 32.3453 74.4114 32.3453V32.4681ZM77.0232 33.5688H77.146V30.6026H77.0232H76.9003V33.5688H77.0232ZM77.0232 30.6026V30.4797H76.0158V30.6026V30.7254H77.0232V30.6026ZM76.0158 30.6026H76.1386V28.4759H76.0158H75.8929V30.6026H76.0158ZM76.0158 28.4759V28.5987H80.4744V28.4759V28.353H76.0158V28.4759ZM80.4744 28.4759H80.3515V39.4265H80.4744H80.5972V28.4759H80.4744ZM80.4744 39.4265V39.5494H81.3885V39.4265V39.3037H80.4744V39.4265ZM81.3885 39.4265H81.2656V41.5532H81.3885H81.5114V39.4265H81.3885ZM81.3885 41.5532V41.4304H77.0418V41.5532V41.6761H81.3885V41.5532ZM77.0418 41.5532H77.1647V40.6018H77.0418H76.919V41.5532H77.0418ZM77.0418 40.6018L76.9582 40.5118C76.1892 41.2259 75.4155 41.6542 74.3368 41.6542V41.7771V41.8999C75.4968 41.8999 76.3274 41.4329 77.1254 40.6918L77.0418 40.6018ZM74.3368 41.7771V41.6542C73.1739 41.6542 72.253 41.1421 71.6195 40.3193C70.984 39.4938 70.6353 38.3512 70.6353 37.0946H70.5125H70.3896C70.3896 38.3938 70.7498 39.5924 71.4249 40.4692C72.102 41.3487 73.0932 41.8999 74.3368 41.8999V41.7771ZM77.0791 37.0013H77.202C77.202 36.4085 77.0781 35.7936 76.8105 35.3223C76.5412 34.8478 76.1186 34.5093 75.5308 34.5093V34.6321V34.755C76.0063 34.755 76.3579 35.0227 76.5969 35.4436C76.8377 35.8678 76.9563 36.4376 76.9563 37.0013H77.0791ZM75.5308 34.6321V34.5093C74.9348 34.5093 74.5069 34.8419 74.2343 35.3275C73.9642 35.8089 73.8409 36.4474 73.8409 37.0946H73.9637H74.0866C74.0866 36.4733 74.2058 35.8805 74.4486 35.4478C74.6891 35.0193 75.0447 34.755 75.5308 34.755V34.6321ZM73.9637 37.0946H73.8409C73.8409 37.7222 73.9545 38.3604 74.2196 38.8464C74.4874 39.3374 74.9156 39.68 75.5308 39.68V39.5571V39.4343C75.0266 39.4343 74.6712 39.1612 74.4353 38.7288C74.1968 38.2913 74.0866 37.6983 74.0866 37.0946H73.9637ZM75.5308 39.5571V39.68C76.1631 39.68 76.5848 39.2817 76.8419 38.7603C77.0977 38.2413 77.202 37.582 77.202 37.0013H77.0791H76.9563C76.9563 37.5586 76.8553 38.1773 76.6215 38.6516C76.3888 39.1236 76.0364 39.4343 75.5308 39.4343V39.5571Z" fill="black" mask="url(#path-7-outside-1_710_53608)"/>
<defs>
<clipPath id="clip0_710_53608">
<rect width="61.1958" height="23.4167" fill="white" transform="translate(10.2188)"/>
</clipPath>
</defs>
</svg>
