<svg width="124" height="17" viewBox="0 0 124 17" fill="none" xmlns="http://www.w3.org/2000/svg">
<path d="M9.49561 1.73132C9.49561 0.365897 8.20158 0 7.13959 0V0.12494C7.79106 0.12494 8.29082 0.437292 8.29082 0.865659C8.29082 1.29403 8.07664 1.55283 7.39839 1.55283C6.65708 1.45536 5.93129 1.26341 5.23871 0.981675C4.46568 0.669727 3.65064 0.474237 2.82022 0.401594C2.51267 0.389647 2.20584 0.439481 1.91788 0.548153C1.62992 0.656824 1.36668 0.822125 1.1437 1.03428C0.920725 1.24644 0.742548 1.50116 0.619705 1.78336C0.496861 2.06556 0.431844 2.36953 0.428497 2.6773C0.428175 3.01147 0.534444 3.33704 0.731854 3.60667C0.929264 3.87631 1.20753 4.07595 1.52619 4.17658V4.12304C1.40564 4.05065 1.30915 3.94429 1.24882 3.81727C1.18849 3.69026 1.167 3.54826 1.18706 3.40909C1.18656 3.28482 1.21202 3.16181 1.2618 3.04795C1.31159 2.93408 1.3846 2.83187 1.47618 2.74786C1.56775 2.66385 1.67586 2.59989 1.79358 2.56007C1.91131 2.52026 2.03605 2.50547 2.15982 2.51666C3.0344 2.61293 3.89429 2.81368 4.7211 3.11459C5.54904 3.3642 6.3928 3.55799 7.24668 3.69467V5.9436L6.24715 6.82711L7.30915 7.71954V10.7449C6.77761 11.031 6.18137 11.1754 5.57783 11.1643C5.07601 11.1814 4.5765 11.0888 4.11411 10.8931C3.65173 10.6973 3.23758 10.4031 2.90053 10.0309L5.70277 8.65659V3.86423L2.18659 5.42599C2.54007 4.55751 3.16657 3.82764 3.97145 3.34662V3.34662C2.88677 3.62094 1.91743 4.23309 1.20354 5.09457C0.489651 5.95604 0.0682074 7.02222 0.000130352 8.13898C-0.00457505 8.78346 0.118153 9.42252 0.36126 10.0194C0.604366 10.6163 0.963054 11.1592 1.4167 11.617C1.87036 12.0748 2.41002 12.4385 3.00467 12.687C3.59933 12.9355 4.23724 13.064 4.88173 13.0652C5.47957 13.078 6.07368 12.968 6.62733 12.742C7.18098 12.5161 7.68241 12.179 8.10061 11.7516C8.51882 11.3242 8.84493 10.8155 9.05877 10.2571C9.27262 9.69866 9.36966 9.1023 9.34389 8.50488H9.28142C8.88352 9.40842 8.22867 10.175 7.39839 10.7092V7.74631L8.51393 6.85388L7.39839 5.96145V3.73037C7.66936 3.74497 7.94045 3.70401 8.19501 3.61C8.44957 3.51598 8.68221 3.3709 8.87863 3.18367C9.07505 2.99644 9.23111 2.77102 9.33721 2.52126C9.44331 2.2715 9.49722 2.00268 9.49561 1.73132V1.73132ZM3.56986 9.5401L2.75775 9.95954C2.18581 9.15978 1.89405 8.1935 1.92778 7.21085C1.91419 6.66453 1.98647 6.11945 2.14197 5.59555L3.56986 4.94407V9.5401ZM16.7154 5.6491L16.171 6.07746L14.5022 4.59603L12.5745 6.09531V0.321276L9.94182 2.10614C10.151 2.15876 10.3341 2.28538 10.4572 2.46258C10.5802 2.63978 10.6349 2.85555 10.6111 3.06997V11.0483L9.71871 11.7266L9.80796 11.8069L10.2542 11.4945L11.8159 12.9224L13.9042 11.6016L13.8418 11.4945L13.3063 11.8515L12.5745 11.1197V6.24702L13.0743 5.88113L14.2255 6.87173V11.0572C14.2255 13.7345 13.6365 14.2521 12.4406 14.6805V14.7519C14.4218 14.8322 16.2067 14.1629 16.2067 10.7717V6.24702L16.8046 5.76511L16.7154 5.6491ZM20.2851 12.9313L23.3283 10.4861L23.2034 10.3701L21.6148 11.6016L19.83 10.1559V9.26345L22.9892 7.03236L21.3471 4.57818L17.8488 6.51475V11.1019L17.1705 11.6373L17.2508 11.7355L17.9023 11.2179L20.2851 12.9313ZM19.821 9.11173V5.63125L21.3114 8.03189L19.821 9.11173ZM35.8848 1.07984C35.8814 0.856215 35.836 0.635221 35.751 0.428367H35.6974C35.4832 1.00845 35.2423 1.3208 34.564 1.3208C34.3168 1.3102 34.0741 1.25027 33.8503 1.14452C33.6266 1.03877 33.4262 0.889338 33.2611 0.705021C33.2611 0.705021 31.2353 3.01642 31.2353 3.01642L31.3334 3.09674L31.8957 2.45419C32.3736 2.91981 33.0133 3.18211 33.6805 3.18598V9.00464L29.611 1.91873C29.4559 1.56024 29.2095 1.24875 28.8962 1.0154C28.583 0.782051 28.214 0.635018 27.8262 0.589005C26.7285 0.589005 25.8896 1.53498 26.0413 3.13244H26.1127C26.193 2.73084 26.425 2.24 26.907 2.24C27.1037 2.27102 27.2892 2.35218 27.4455 2.47566C27.6018 2.59914 27.7237 2.76078 27.7994 2.94503V5.2118C26.5321 5.2118 25.8182 5.79188 25.8182 6.79141C25.8191 7.12624 25.9308 7.45136 26.1358 7.71609C26.3408 7.98083 26.6276 8.17031 26.9516 8.255V8.21038C26.8809 8.15912 26.8232 8.09211 26.7829 8.01466C26.7426 7.93721 26.7209 7.85144 26.7195 7.76416C26.7195 7.38041 26.9962 7.15731 27.5138 7.15731C27.5967 7.14559 27.6808 7.14559 27.7637 7.15731V10.1202C26.2823 10.1202 25.0864 10.9501 25.0864 12.3513C25.0864 13.7524 26.2376 14.2968 27.4335 14.2343V14.1807C26.6928 14.1004 26.309 13.7167 26.309 13.1634C26.3084 13.0383 26.3341 12.9144 26.3844 12.7999C26.4347 12.6854 26.5086 12.5827 26.6011 12.4986C26.6937 12.4144 26.8029 12.3507 26.9217 12.3114C27.0405 12.2722 27.1662 12.2584 27.2907 12.2709C27.5509 12.2923 27.8032 12.3706 28.0299 12.5001C28.2565 12.6296 28.452 12.8073 28.6026 13.0206L30.6016 10.7717L30.5124 10.6913L30.0037 11.2714C29.4339 10.6635 28.6765 10.2644 27.8529 10.138V3.15029L33.4931 12.967H33.7965V3.15029C34.3419 3.13188 34.8591 2.90338 35.24 2.51254C35.6209 2.1217 35.8359 1.59877 35.8402 1.05307L35.8848 1.07984ZM37.7411 12.8956L40.7843 10.4504L40.704 10.3344L39.1511 11.6016L37.3663 10.1559V9.26345L40.5255 7.03236L38.8834 4.57818L35.3672 6.51475V11.1019L34.689 11.6373L34.7693 11.7355L35.4208 11.2179L37.7411 12.8956ZM37.277 9.07603V5.63125L38.8477 8.03189L37.277 9.07603ZM51.6452 5.35459L51.1811 5.70264L49.8514 4.59603L48.2986 5.99714L48.9322 6.59507V11.8069L47.3526 10.7092V6.49691L47.9059 6.11316L46.2727 4.59603L44.7556 5.99714L45.3892 6.59507V11.6016L45.2911 11.6641L43.8096 10.6199V6.47906C43.8096 5.51523 43.3277 5.22965 42.7119 4.84591C42.0961 4.46216 41.9444 4.23013 41.9444 3.74821C41.9555 3.56506 42.0196 3.38908 42.129 3.24171C42.2383 3.09435 42.3881 2.98197 42.5602 2.91825C42.0529 2.93369 41.5679 3.13028 41.193 3.47243C40.8181 3.81457 40.5782 4.27965 40.5165 4.78344C40.5092 5.04223 40.5656 5.29885 40.6808 5.53072C40.7959 5.76259 40.9663 5.96261 41.1769 6.11316C41.3776 6.25264 41.5438 6.43608 41.6629 6.64949C41.782 6.86291 41.8508 7.10069 41.8641 7.34472V11.4053L41.1502 11.9675L41.2305 12.0568L41.9087 11.5213L43.6936 12.967L45.3892 11.789L47.2544 12.967L50.8688 10.8074V6.11316L51.7612 5.47953L51.6452 5.35459ZM63.9072 1.43682L63.2111 2.07044L61.6404 0.705021L59.5343 2.40064V0.803189H59.4004V12.2352C59.1684 12.2352 58.6775 12.0657 58.151 11.9854V2.41849C58.1516 2.18922 58.1049 1.9623 58.0138 1.75187C57.9228 1.54144 57.7894 1.35203 57.6219 1.19545C57.4545 1.03886 57.2565 0.918465 57.0405 0.841764C56.8244 0.765063 56.5949 0.733704 56.3661 0.749643C55.8488 0.751528 55.3521 0.953044 54.9796 1.31217C54.6072 1.67131 54.3878 2.16033 54.3671 2.6773H54.4385C54.4527 2.47759 54.5379 2.28955 54.6786 2.14716C54.8194 2.00477 55.0064 1.91741 55.206 1.90088C55.6343 1.90088 56.0002 2.16861 56.0002 3.09674V5.86328C55.5423 5.83281 55.0902 5.97994 54.7378 6.2741C54.3855 6.56825 54.1601 6.98683 54.1083 7.44288C54.0934 7.77414 54.2081 8.09817 54.4279 8.34637C54.6478 8.59456 54.9557 8.74743 55.2863 8.77261V8.71014C54.9918 8.57627 54.9204 8.42456 54.9204 8.255C54.9204 7.86233 55.3041 7.72846 55.8128 7.72846H55.9467V12.1192C55.5186 12.2147 55.1358 12.4533 54.8616 12.7956C54.5874 13.138 54.4381 13.5636 54.4385 14.0023C54.4444 14.2945 54.5108 14.5823 54.6335 14.8475C54.7561 15.1128 54.9325 15.3498 55.1513 15.5435C55.3702 15.7372 55.6268 15.8834 55.905 15.973C56.1832 16.0625 56.477 16.0934 56.7677 16.0638C57.6213 16.0447 58.4694 15.9219 59.2933 15.6979C59.9236 15.5433 60.5652 15.4389 61.212 15.3855C61.7475 15.3855 61.9795 15.6176 61.9795 16.0013C61.9795 16.3851 61.7921 16.7331 61.5155 16.8134V16.8759C61.9993 16.8421 62.4523 16.6263 62.7834 16.272C63.1146 15.9176 63.2993 15.4511 63.3003 14.9661C63.2738 14.7115 63.1968 14.4647 63.0738 14.2402C62.9509 14.0157 62.7844 13.8179 62.5842 13.6584C62.384 13.4989 62.154 13.3809 61.9077 13.3112C61.6614 13.2415 61.4037 13.2216 61.1496 13.2526C60.3034 13.3009 59.4637 13.4293 58.6418 13.6364C57.9528 13.7993 57.2512 13.9038 56.5446 13.9487C56.0627 13.9487 55.4559 13.7345 55.4559 13.0563C55.4559 12.378 55.9467 12.0121 57.1426 12.0121C57.8439 12.026 58.5414 12.1188 59.2219 12.2888C59.9237 12.5131 60.6479 12.6597 61.3816 12.7261C62.399 12.7261 63.1665 12.3602 63.1665 10.8787V2.21323L63.9161 1.53498L63.9072 1.43682ZM61.0425 6.01499C60.9534 6.12872 60.8396 6.22075 60.7097 6.28413C60.5799 6.34751 60.4373 6.38059 60.2928 6.38089C60.1479 6.37592 60.0056 6.34081 59.875 6.27781C59.7444 6.21482 59.6284 6.12531 59.5343 6.01499V2.5702L60.034 2.16861L61.0425 3.06104V6.01499ZM61.0425 7.63922C60.9463 7.53759 60.8299 7.45728 60.7008 7.40348C60.5717 7.34967 60.4327 7.32357 60.2928 7.32687C60.0091 7.32904 59.7373 7.44098 59.5343 7.63922V6.17563C59.7329 6.3837 60.0053 6.50548 60.2928 6.51475C60.4349 6.51583 60.5755 6.48607 60.7049 6.42752C60.8343 6.36897 60.9495 6.28303 61.0425 6.17563V7.63922ZM61.0425 11.084C61.0425 11.6552 60.7658 12.2888 60.034 12.2888C59.8676 12.298 59.7007 12.298 59.5343 12.2888V7.82663C59.6273 7.71745 59.7429 7.62977 59.8731 7.56965C60.0033 7.50952 60.145 7.47838 60.2884 7.47838C60.4318 7.47838 60.5735 7.50952 60.7037 7.56965C60.8339 7.62977 60.9495 7.71745 61.0425 7.82663V11.084ZM66.9325 12.9313L70.3327 10.8252V6.19348L68.1641 4.57818L64.7728 6.52368V11.1019L64.1035 11.6373L64.1749 11.7355L64.7193 11.2893L66.9325 12.9313ZM66.6827 10.5396V5.6134L68.3783 6.88065V11.8069L66.6827 10.5396ZM76.8564 4.69419C76.6431 4.86639 76.3806 4.96639 76.1067 4.97977C75.9595 4.97113 75.8155 4.93266 75.6836 4.8667C75.5517 4.80073 75.4345 4.70864 75.3392 4.59603C75.3392 4.59603 74.072 5.96145 74.072 5.96145L72.8137 4.59603L70.7521 6.03284L70.8146 6.14886L71.3947 5.78296L72.1354 6.59507V11.0572L71.243 11.7355L71.3233 11.8158L71.7695 11.5034L73.4562 12.9313L75.5802 11.5213L75.5177 11.4231L74.9733 11.7533L74.0809 10.968V6.07746C74.2262 6.27459 74.4106 6.4397 74.6224 6.56253C74.8343 6.68535 75.0692 6.76326 75.3125 6.79141C76.2049 6.79141 76.7582 5.76511 76.8564 4.69419ZM84.8883 11.325L84.2546 11.7176L80.7474 6.47906L80.9259 6.22918C81.3405 6.56689 81.8549 6.75826 82.3895 6.77356C82.905 6.69861 83.3738 6.4337 83.704 6.03082C84.0343 5.62795 84.202 5.11621 84.1743 4.59603C84.0405 4.77344 83.8662 4.91624 83.6659 5.0125C83.4656 5.10876 83.2452 5.15568 83.0231 5.14933C82.5905 5.10897 82.1876 4.91224 81.8897 4.59603L79.4266 8.12113L82.6036 12.967L84.915 11.441L84.8883 11.325ZM80.6224 11.4499L80.0959 11.8069L79.3641 11.0751V0.321276L76.6868 2.10614C76.896 2.15876 77.0791 2.28538 77.2022 2.46258C77.3252 2.63978 77.3799 2.85555 77.3561 3.06997V11.0483L76.4637 11.7266L76.544 11.8069L76.9992 11.4945L78.5609 12.9224L80.6849 11.6016L80.6224 11.4499ZM96.0704 1.73132C96.0704 0.365897 94.7764 0 93.7055 0V0.12494C94.348 0.12494 94.8478 0.437292 94.8478 0.865659C94.8478 1.29403 94.6336 1.55283 93.9554 1.55283C93.2143 1.45422 92.4886 1.26231 91.7957 0.981675C91.0254 0.670831 90.2135 0.475365 89.3861 0.401594C89.0796 0.392088 88.7743 0.443669 88.4879 0.553332C88.2015 0.662994 87.9398 0.828547 87.7181 1.04035C87.4963 1.25214 87.3189 1.50595 87.1962 1.78699C87.0735 2.06803 87.0079 2.37067 87.0033 2.6773C87.0044 3.01113 87.1112 3.33605 87.3084 3.60542C87.5056 3.87478 87.7831 4.07473 88.101 4.17658V4.12304C87.9829 4.04862 87.8889 3.9416 87.8303 3.81491C87.7717 3.68822 87.7511 3.54727 87.7708 3.40909C87.7704 3.28564 87.7956 3.16344 87.8449 3.05024C87.8941 2.93703 87.9663 2.83527 88.0569 2.7514C88.1475 2.66752 88.2545 2.60335 88.3712 2.56295C88.4878 2.52254 88.6116 2.50678 88.7346 2.51666C89.6094 2.61199 90.4694 2.81276 91.2959 3.11459C92.1239 3.3642 92.9676 3.55799 93.8215 3.69467V5.9436L92.7595 6.83603L93.8215 7.72846V10.7538C93.29 11.0399 92.6937 11.1844 92.0902 11.1733C91.5881 11.1921 91.0881 11.1004 90.6254 10.9045C90.1627 10.7087 89.7488 10.4135 89.4129 10.0399L92.2776 8.65659V3.86423L88.7703 5.42599C89.1227 4.55682 89.7495 3.82663 90.5552 3.34662V3.34662C89.4672 3.61768 88.4939 4.22841 87.7766 5.09017C87.0593 5.95193 86.6352 7.01987 86.566 8.13898C86.5613 8.78346 86.6841 9.42252 86.9272 10.0194C87.1703 10.6163 87.529 11.1592 87.9826 11.617C88.4363 12.0748 88.9759 12.4385 89.5706 12.687C90.1652 12.9355 90.8031 13.064 91.4476 13.0652C92.0455 13.078 92.6396 12.968 93.1932 12.742C93.7469 12.5161 94.2483 12.179 94.6665 11.7516C95.0847 11.3242 95.4108 10.8155 95.6247 10.2571C95.8385 9.69866 95.9356 9.1023 95.9098 8.50488H95.8563C95.4584 9.40842 94.8035 10.175 93.9732 10.7092V7.74631L95.0888 6.85388L93.9732 5.96145V3.73037C94.2442 3.74497 94.5153 3.70401 94.7698 3.61C95.0244 3.51598 95.257 3.3709 95.4535 3.18367C95.6499 2.99644 95.8059 2.77102 95.912 2.52126C96.0181 2.2715 96.072 2.00268 96.0704 1.73132V1.73132ZM90.1358 9.5401L89.3236 9.95954C88.7517 9.15978 88.46 8.1935 88.4937 7.21085C88.4801 6.66453 88.5524 6.11945 88.7079 5.59555L90.1358 4.94407V9.5401ZM98.1677 1.22263L96.7398 2.45419L97.9892 3.86423L99.4528 2.6773L98.1677 1.22263ZM100.399 11.4499L99.8633 11.8069L99.1315 11.0751V6.24702L99.7473 5.76511L99.6669 5.66694L99.1493 6.05961L97.9356 4.61387L95.9366 6.01499L96.008 6.13101L96.4988 5.80081L97.1681 6.63077V11.0929L96.2757 11.7712L96.3649 11.8515L96.8112 11.5391L98.3729 12.967L100.497 11.6016L100.399 11.4499ZM111.634 11.3874L111.135 11.7176L110.349 10.968V6.24702L110.983 5.76511L110.903 5.66694L110.332 6.09531L108.672 4.61387L106.824 6.05961L105.173 4.59603L103.326 6.04177L102.077 4.59603L100.086 5.99714L100.149 6.11316L100.649 5.78296L101.363 6.59507V11.0572L100.845 11.6016L102.442 12.9492L103.96 11.6016L103.326 11.0037V6.19348L103.745 5.89898L104.897 6.88958V11.0572L104.361 11.6016L105.976 12.9492L107.494 11.557L106.86 10.9591V6.19348L107.253 5.88113L108.422 6.88958V10.9858L107.958 11.4678L109.591 12.9492L111.733 11.4856L111.634 11.3874ZM117.444 10.3701L115.874 11.6016L114.044 10.1559V9.26345L117.212 7.03236L115.615 4.5514L112.099 6.51475V11.1911L114.517 12.976L117.56 10.5307L117.444 10.3701ZM114.008 9.11173V5.63125L115.579 8.03189L114.008 9.11173ZM123.548 8.45133L122.263 7.42503C122.63 7.11743 122.928 6.73584 123.137 6.30524C123.346 5.87463 123.462 5.40471 123.477 4.92623C123.477 4.82806 123.477 4.64065 123.477 4.48001C123.399 4.68866 123.257 4.86702 123.071 4.98904C122.885 5.11106 122.664 5.17035 122.442 5.15826C122.187 5.15661 121.936 5.09225 121.712 4.97085C121.488 4.84945 121.297 4.67475 121.157 4.46216L118.06 6.24702V8.71906L119.238 9.65611C118.06 10.7092 117.801 11.3517 117.801 11.9497C117.797 12.2475 117.886 12.5392 118.055 12.7841C118.225 13.0289 118.467 13.2146 118.747 13.3151L118.801 13.2348C118.71 13.1791 118.635 13.1001 118.585 13.006C118.535 12.9118 118.511 12.8059 118.515 12.6993C118.526 12.6096 118.555 12.523 118.599 12.4444C118.644 12.3657 118.704 12.2967 118.775 12.2411C118.846 12.1856 118.928 12.1447 119.015 12.1207C119.102 12.0967 119.193 12.0901 119.283 12.1014C119.541 12.1149 119.792 12.1861 120.019 12.3096C120.246 12.4332 120.443 12.606 120.594 12.8153C120.594 12.8153 123.557 11.0305 123.557 11.0305L123.548 8.45133ZM122.852 6.38981C122.282 7.21164 121.572 7.92744 120.755 8.50488L120.005 7.87125V5.42599C120.14 5.77561 120.374 6.07831 120.679 6.29704C120.983 6.51577 121.345 6.64105 121.719 6.65754C122.114 6.66979 122.505 6.57742 122.852 6.38981V6.38981ZM121.567 11.8872C121.409 11.5006 121.143 11.1673 120.802 10.9269C120.46 10.6866 120.057 10.549 119.64 10.5307C119.169 10.5101 118.702 10.6214 118.292 10.852C118.943 9.94494 119.784 9.18986 120.755 8.63874L121.567 9.31699V11.8872Z" fill="black"/>
</svg>
