<svg width="26" height="26" viewBox="0 0 26 26" fill="none" xmlns="http://www.w3.org/2000/svg">
<path d="M13.0004 0.583332C19.8578 0.583508 25.4164 6.1429 25.4164 13.0003C25.4162 19.8576 19.8576 25.4162 13.0004 25.4163C6.14294 25.4163 0.58355 19.8577 0.583374 13.0003C0.583374 6.14279 6.14283 0.583332 13.0004 0.583332Z" fill="black" fill-opacity="0.5" stroke="white"/>
<path fill-rule="evenodd" clip-rule="evenodd" d="M12.8143 15.5594V13.003V13.0074V12.9926V12.9955V10.4406V9.5992V7.8H12.0714L9.09997 10.7714H6.8714C6.46283 10.7714 6.12854 11.1052 6.12854 11.5143V14.4857C6.12854 14.8933 6.46283 15.2286 6.8714 15.2286H9.09997L12.0714 18.2H12.8143V16.4008V15.5594Z" fill="white"/>
<path d="M15.8785 14.95L19.7785 11.05" stroke="white" stroke-linecap="square"/>
<path d="M15.8785 11.05L19.7785 14.95" stroke="white" stroke-linecap="square"/>
</svg>
