<svg width="28" height="28" viewBox="0 0 28 28" fill="none" xmlns="http://www.w3.org/2000/svg">
<path d="M14 0.5C21.4558 0.5 27.5 6.54416 27.5 14C27.5 21.4558 21.4558 27.5 14 27.5C6.54416 27.5 0.5 21.4558 0.5 14C0.5 6.54416 6.54416 0.5 14 0.5Z" fill="black" fill-opacity="0.5" stroke="white"/>
<path fill-rule="evenodd" clip-rule="evenodd" d="M12.8857 16.9308V14.3744V14.3789V14.364V14.367V11.812V10.9706V9.17143H12.1428L9.17138 12.1429H6.94281C6.53424 12.1429 6.19995 12.4767 6.19995 12.8857V15.8571C6.19995 16.2647 6.53424 16.6 6.94281 16.6H9.17138L12.1428 19.5714H12.8857V17.7722V16.9308Z" fill="white"/>
<path d="M18.6335 8.8C20.3123 9.94326 21.4407 12.076 21.4407 14.5185C21.4407 16.9625 20.3108 19.0967 18.6305 20.2393" stroke="#FEFEFE" stroke-linecap="round"/>
<path d="M16.5196 10.2185C17.7817 11.078 18.6308 12.6825 18.6308 14.5189C18.6308 16.3567 17.7809 17.9613 16.5173 18.8208" stroke="#FEFEFE" stroke-linecap="round"/>
<path d="M14.7442 11.7717C15.5509 12.3206 16.0932 13.3458 16.0932 14.5195C16.0932 15.6932 15.5502 16.7191 14.7427 17.2681" stroke="#FEFEFE" stroke-linecap="round"/>
</svg>
