<svg width="111" height="38" viewBox="0 0 111 38" fill="none" xmlns="http://www.w3.org/2000/svg">
<g clip-path="url(#clip0_701_122878)">
<path d="M47.1807 19.2309C47.1807 24.4361 43.1087 28.2717 38.1114 28.2717C33.1141 28.2717 29.0421 24.4361 29.0421 19.2309C29.0421 13.9891 33.1141 10.1902 38.1114 10.1902C43.1087 10.1902 47.1807 13.9891 47.1807 19.2309ZM43.2106 19.2309C43.2106 15.9782 40.8505 13.7527 38.1114 13.7527C35.3723 13.7527 33.0122 15.9782 33.0122 19.2309C33.0122 22.4511 35.3723 24.7092 38.1114 24.7092C40.8505 24.7092 43.2106 22.447 43.2106 19.2309Z" fill="#EA4335"/>
<path d="M66.746 19.2309C66.746 24.4361 62.674 28.2717 57.6767 28.2717C52.6794 28.2717 48.6074 24.4361 48.6074 19.2309C48.6074 13.9932 52.6794 10.1902 57.6767 10.1902C62.674 10.1902 66.746 13.9891 66.746 19.2309ZM62.7759 19.2309C62.7759 15.9782 60.4158 13.7527 57.6767 13.7527C54.9376 13.7527 52.5775 15.9782 52.5775 19.2309C52.5775 22.4511 54.9376 24.7092 57.6767 24.7092C60.4158 24.7092 62.7759 22.447 62.7759 19.2309Z" fill="#FBBC05"/>
<path d="M85.496 10.7364V26.9674C85.496 33.644 81.5585 36.3709 76.9036 36.3709C72.5218 36.3709 69.8845 33.4402 68.89 31.0434L72.3465 29.6046C72.962 31.0761 74.4701 32.8125 76.8995 32.8125C79.8791 32.8125 81.7256 30.9742 81.7256 27.5136V26.2133H81.587C80.6984 27.3098 78.9864 28.2676 76.8261 28.2676C72.3057 28.2676 68.1644 24.3301 68.1644 19.2636C68.1644 14.1603 72.3057 10.1902 76.8261 10.1902C78.9824 10.1902 80.6943 11.1481 81.587 12.2119H81.7256V10.7405H85.496V10.7364ZM82.0068 19.2636C82.0068 16.0801 79.8832 13.7527 77.1807 13.7527C74.4416 13.7527 72.1468 16.0801 72.1468 19.2636C72.1468 22.4144 74.4416 24.7092 77.1807 24.7092C79.8832 24.7092 82.0068 22.4144 82.0068 19.2636Z" fill="#4285F4"/>
<path d="M91.7119 1.2229V27.7175H87.8396V1.2229H91.7119Z" fill="#34A853"/>
<path d="M106.802 22.2065L109.883 24.2609C108.889 25.7324 106.492 28.2677 102.35 28.2677C97.2146 28.2677 93.379 24.2976 93.379 19.2269C93.379 13.8506 97.2472 10.1862 101.906 10.1862C106.598 10.1862 108.893 13.9199 109.643 15.9375L110.054 16.9647L97.9687 21.9701C98.894 23.784 100.333 24.7093 102.35 24.7093C104.372 24.7093 105.774 23.7147 106.802 22.2065ZM97.3165 18.9538L105.395 15.5992C104.951 14.4701 103.614 13.6834 102.041 13.6834C100.023 13.6834 97.2146 15.4647 97.3165 18.9538Z" fill="#EA4335"/>
<path d="M14.3845 16.8791V13.0436H27.3098C27.4361 13.712 27.5013 14.5028 27.5013 15.3588C27.5013 18.2365 26.7147 21.7949 24.1793 24.3302C21.7133 26.8982 18.5625 28.2677 14.3886 28.2677C6.65216 28.2677 0.146729 21.9661 0.146729 14.2297C0.146729 6.49328 6.65216 0.19165 14.3886 0.19165C18.6685 0.19165 21.7174 1.871 24.0081 4.05986L21.3016 6.76638C19.659 5.22562 17.4334 4.02725 14.3845 4.02725C8.73504 4.02725 4.31657 8.58024 4.31657 14.2297C4.31657 19.8791 8.73504 24.4321 14.3845 24.4321C18.0489 24.4321 20.1359 22.9607 21.4728 21.6237C22.5571 20.5395 23.2704 18.9906 23.5516 16.8751L14.3845 16.8791Z" fill="#4285F4"/>
</g>
<defs>
<clipPath id="clip0_701_122878">
<rect width="110.87" height="37.5" fill="white"/>
</clipPath>
</defs>
</svg>
