<svg width="375" height="758" viewBox="0 0 375 758" fill="none" xmlns="http://www.w3.org/2000/svg">
<path d="M271.795 72.5018C273.395 69.717 276.362 68 279.574 68H337.953C341.164 68 344.131 69.717 345.732 72.5018L374.938 123.329C376.539 126.115 376.528 129.544 374.909 132.32L345.741 182.322C344.133 185.078 341.183 186.773 337.992 186.773H279.535C276.344 186.773 273.393 185.078 271.785 182.322L242.617 132.32C240.998 129.544 240.987 126.115 242.588 123.329L271.795 72.5018Z" fill="#F5F51B"/>
<rect x="-44" width="110" height="105" rx="20" fill="#BC70C4"/>
<path d="M9.79472 679.502C11.395 676.717 14.3618 675 17.5737 675H75.9526C79.1645 675 82.1313 676.717 83.7316 679.502L112.938 730.329C114.539 733.115 114.528 736.544 112.909 739.32L83.7412 789.322C82.1334 792.078 79.1825 793.773 75.9915 793.773H17.5348C14.3438 793.773 11.393 792.078 9.78512 789.322L-19.3827 739.32C-21.0017 736.544 -21.0128 733.115 -19.412 730.329L9.79472 679.502Z" fill="#F7DA21"/>
<rect x="302" y="690" width="110" height="105" rx="20" fill="#BC70C4"/>
<rect x="240" y="538" width="264" height="105" rx="20" fill="#E1D7FA"/>
<rect x="-35" y="510" width="110" height="105" fill="#6AAA64"/>
<rect x="5" y="68" width="110" height="105" fill="#D1B036"/>
<path d="M350.795 130.502C352.395 127.717 355.362 126 358.574 126H416.953C420.164 126 423.131 127.717 424.732 130.502L453.938 181.329C455.539 184.115 455.528 187.544 453.909 190.32L424.741 240.322C423.133 243.078 420.183 244.773 416.992 244.773H358.535C355.344 244.773 352.393 243.078 350.785 240.322L321.617 190.32C319.998 187.544 319.987 184.115 321.588 181.329L350.795 130.502Z" fill="#FFB327"/>
</svg>
