<svg width="144" height="134" viewBox="0 0 144 134" fill="none" xmlns="http://www.w3.org/2000/svg">
<path d="M46.6738 75.8958C46.6738 86.5135 54.6396 95.0838 65.5791 95.0838H82.3491C92.5378 94.2843 101.352 85.9773 101.352 75.8958C101.352 65.278 93.2886 56.7565 82.3491 56.7565C82.3491 56.7565 66.1738 56.7078 65.5791 56.7565C55.4878 57.6438 46.6738 65.8728 46.6738 75.8958Z" fill="#F8CD0E"/>
<path d="M74.0127 46.2165V56.7368H84.5329C90.3439 56.7465 95.0532 52.0275 95.0532 46.2165C95.0532 40.4055 90.3439 35.6963 84.5329 35.6963C78.7219 35.6963 74.0127 40.4055 74.0127 46.2165Z" fill="white"/>
<path d="M74.0122 46.2165V56.7368H63.4919C57.6809 56.7465 52.9717 52.0275 52.9717 46.2165C52.9717 40.4055 57.6809 35.6963 63.4919 35.6963C69.3029 35.6963 74.0122 40.4055 74.0122 46.2165Z" fill="white"/>
<path d="M83.4697 72.1028C83.4697 70.3576 84.8835 68.9438 86.6287 68.9438C88.374 68.9438 89.7877 70.3576 89.7877 72.1028C89.7877 73.8481 88.374 75.2618 86.6287 75.2618C84.8835 75.2618 83.4697 73.8481 83.4697 72.1028Z" fill="black"/>
<path d="M90.1977 56.7959C91.2215 56.2499 92.1672 55.5479 93.0057 54.7094C95.2775 52.4376 96.5255 49.4249 96.5255 46.2171C96.5255 39.6066 91.1434 34.2246 84.5329 34.2246C80.0089 34.2246 76.0602 36.7499 74.0127 40.4646C71.9749 36.7499 68.0262 34.2246 63.4925 34.2246C56.882 34.2246 51.5 39.6066 51.5 46.2171C51.5 49.4249 52.748 52.4474 55.0197 54.7094C56.024 55.7136 57.1842 56.5034 58.4224 57.0786C51.1782 60.2181 45.8839 66.9164 45.2599 74.4239H39.5854V77.3781H45.2599C45.9912 88.2396 54.6395 96.5564 65.5692 96.5564H82.4562C93.6882 95.6691 102.824 86.4066 102.824 75.8864C102.824 67.1406 97.6662 59.8281 90.188 56.7861L90.1977 56.7959ZM75.4947 46.2171C75.4947 41.2349 79.5507 37.1789 84.5329 37.1789C89.5152 37.1789 93.5712 41.2349 93.5712 46.2171C93.5712 48.6351 92.6255 50.9069 90.9192 52.6229C89.213 54.3194 86.951 55.2554 84.5525 55.2554H75.4947V46.2171ZM54.4542 46.2171C54.4542 41.2349 58.5102 37.1789 63.4925 37.1789C68.4747 37.1789 72.5307 41.2349 72.5307 46.2171V55.2554C70.649 55.2554 68.9134 55.2554 67.6167 55.2554H63.4632C61.0549 55.2554 58.8027 54.3194 57.0965 52.6229C55.3805 50.9166 54.4445 48.6351 54.4445 46.2171H54.4542ZM60.9575 93.0074C53.411 91.0476 48.146 84.3494 48.146 75.8961C48.146 68.5154 53.5865 61.8171 60.9575 59.2626V93.0074ZM72.5405 93.6119H65.579C65.0135 93.6119 64.4577 93.5826 63.9117 93.5339V58.4631C64.4967 58.3559 65.0915 58.2779 65.6862 58.2194C65.8227 58.2194 66.3199 58.2096 67.0902 58.1999H72.5405V93.5924V93.6119ZM93.3079 83.6961C91.1727 83.6961 89.1739 82.8674 87.6627 81.3561L85.5762 83.4426C87.6432 85.5096 90.3829 86.6406 93.3079 86.6406C94.2634 86.6406 95.1897 86.5041 96.0867 86.2701C92.8595 90.3066 87.887 93.1439 82.2905 93.5924H75.485V58.2096C77.8445 58.2096 80.2722 58.2194 82.3489 58.2291C92.3427 58.2291 99.8795 65.8244 99.8795 75.8961C99.8795 77.8169 99.4992 79.6889 98.8362 81.4634C97.3445 82.9064 95.3847 83.6961 93.3079 83.6961Z" fill="black"/>
<path d="M25.3893 123.378C25.3893 126.615 23.4393 128.887 20.2511 128.887C18.7203 128.887 17.8136 128.517 16.4973 127.649V128.595H13.6211V122.842H16.6631C16.6143 124.422 16.9068 125.816 18.7593 125.816C19.9293 125.816 20.6606 125.114 20.6606 123.963C20.6606 123.086 20.1243 122.579 19.2956 122.208L16.8386 121.087C15.0348 120.258 13.9136 118.796 13.9136 116.485C13.9136 113.394 15.8636 111.171 18.6911 111.171C19.7636 111.171 20.9823 111.542 21.9573 112.127L21.9866 111.522H24.8141V116.612H21.7721C21.7721 114.954 21.5771 113.96 20.1438 113.96C19.2176 113.96 18.6131 114.613 18.6131 115.617C18.6131 116.417 19.0518 116.953 19.7538 117.294L22.3571 118.562C24.3558 119.537 25.3991 121.019 25.3991 123.388L25.3893 123.378Z" fill="black"/>
<path d="M37.07 122.579C37.07 127.668 35.4905 128.79 33.4138 128.79C32.2243 128.79 31.2005 128.058 30.8788 127.23V130.35H31.9025V133.031H25.9355V130.35H26.9593V119.654H25.955V116.953H30.7813V118.464C31.3858 117.177 32.4388 116.709 33.482 116.709C35.4028 116.709 37.0603 117.762 37.0603 122.579H37.07ZM33.0725 122.774C33.0725 120.463 32.8483 119.683 31.9025 119.683C30.9568 119.683 30.7618 120.463 30.7618 122.774C30.7618 124.792 30.8398 125.894 31.9318 125.894C33.0238 125.894 33.0823 124.802 33.0823 122.774H33.0725Z" fill="black"/>
<path d="M48.2045 122.842C48.2045 123.135 48.185 123.525 48.1557 123.817H42.062C42.062 125.67 42.452 126.274 43.427 126.274C44.129 126.274 44.597 125.865 44.8115 124.977H48.1265C47.4927 127.629 45.9035 128.877 43.3977 128.877C40.1802 128.877 38.084 127.532 38.084 122.764C38.084 118.26 40.4922 116.651 43.2515 116.651C46.0107 116.651 48.1947 118.308 48.1947 122.842H48.2045ZM44.4507 122.033V121.721C44.4507 120.336 44.285 119.332 43.2612 119.332C42.0717 119.332 42.0717 120.6 42.0425 122.033H44.4507Z" fill="black"/>
<path d="M54.7955 128.595H48.848V125.894H49.8523V114.223H48.7603V111.522H53.7815V125.904H54.8053V128.604L54.7955 128.595Z" fill="black"/>
<path d="M61.5133 128.595H55.5658V125.894H56.5603V114.223H55.4683V111.522H60.4895V125.904H61.5133V128.604V128.595Z" fill="black"/>
<path d="M68.2698 128.595H62.3223V125.894H63.346V119.654H62.3223V116.953H67.2655V125.894H68.26V128.595H68.2698ZM67.2753 115.461H63.307V111.834H67.2753V115.461Z" fill="black"/>
<path d="M81.2862 128.595H76.2454V120.824C76.2454 120.19 75.8749 119.732 75.2022 119.732C74.4417 119.732 74.0614 120.317 74.0614 121.214V125.894H75.0852V128.595H69.1182V125.894H70.1419V119.654H69.1182V116.953H73.8177V118.416C74.1394 117.899 74.9584 116.709 76.9572 116.709C79.0729 116.709 80.2527 118.338 80.2527 120.366V125.894H81.2959V128.595H81.2862Z" fill="black"/>
<path d="M93.0546 119.654H92.06V126.576C92.06 130.671 90.5293 133.128 86.3563 133.128C85.235 133.128 83.8993 132.963 82.583 132.397V129.745C83.4118 130.155 84.5818 130.428 85.6738 130.428C87.4776 130.428 88.1795 129.287 88.2283 127.093C87.887 127.922 86.795 128.721 85.5763 128.721C83.5093 128.721 81.998 127.668 81.998 122.579C81.998 117.753 83.6555 116.709 85.5763 116.709C86.6195 116.709 87.6238 117.177 88.2283 118.464V116.953H93.0546V119.654ZM88.2575 122.774C88.2575 120.463 88.0918 119.683 87.1363 119.683C86.1808 119.683 85.9955 120.463 85.9955 122.774C85.9955 124.792 85.9955 125.865 87.1168 125.865C88.238 125.865 88.2575 124.792 88.2575 122.774Z" fill="black"/>
<path d="M108.459 124.012C108.459 125.397 107.943 126.596 107.026 127.444C106.022 128.341 105.154 128.585 102.717 128.585H95.5991V125.562H96.8179V114.525H95.5991V111.503H102.98C105.973 111.503 107.874 113.229 107.874 116.007C107.874 117.86 107.016 119.049 105.32 119.761V119.81C106.344 120.083 106.851 120.375 107.387 120.98C108.089 121.731 108.459 122.803 108.459 124.002V124.012ZM103.711 116.631C103.711 115.998 103.545 115.491 103.302 115.149C103.009 114.759 102.57 114.545 101.937 114.545H101.254V118.786H102.132C102.619 118.786 102.96 118.562 103.204 118.318C103.545 117.977 103.711 117.372 103.711 116.641V116.631ZM103.857 123.408C103.857 122.803 103.711 122.208 103.419 121.867C103.077 121.458 102.658 121.282 102.005 121.282H101.254V125.572H101.937C102.697 125.572 103.058 125.406 103.35 125.114C103.672 124.792 103.857 124.139 103.857 123.408Z" fill="black"/>
<path d="M119.33 122.842C119.33 123.135 119.301 123.525 119.282 123.817H113.188C113.188 125.67 113.578 126.274 114.553 126.274C115.255 126.274 115.723 125.865 115.937 124.977H119.252C118.619 127.629 117.039 128.877 114.524 128.877C111.306 128.877 109.21 127.532 109.21 122.764C109.21 118.26 111.618 116.651 114.377 116.651C117.137 116.651 119.321 118.308 119.321 122.842H119.33ZM115.577 122.033V121.721C115.577 120.336 115.411 119.332 114.387 119.332C113.198 119.332 113.198 120.6 113.168 122.033H115.577Z" fill="black"/>
<path d="M130.329 122.842C130.329 123.135 130.309 123.525 130.28 123.817H124.186C124.186 125.67 124.576 126.274 125.551 126.274C126.253 126.274 126.721 125.865 126.945 124.977H130.26C129.627 127.629 128.047 128.877 125.532 128.877C122.314 128.877 120.218 127.532 120.218 122.764C120.218 118.26 122.626 116.651 125.385 116.651C128.145 116.651 130.329 118.308 130.329 122.842ZM126.575 122.033V121.721C126.575 120.336 126.399 119.332 125.385 119.332C124.196 119.332 124.196 120.6 124.167 122.033H126.575Z" fill="black"/>
<path d="M60.541 45.4779H86.7674V30.4111L79.4012 35.0086L73.6546 30.4111L67.9072 35.0086L60.541 30.4111V45.4779Z" fill="#5BA0D4"/>
<path fill-rule="evenodd" clip-rule="evenodd" d="M59.0107 27.7012L67.7943 33.1833L73.654 28.4961L79.5126 33.1832L88.2962 27.7012V46.9494H59.0107V27.7012ZM85.2371 33.1196L79.2883 36.8324L73.6538 32.3247L68.0185 36.8324L62.0698 33.1196V44.005H85.2371V33.1196Z" fill="black"/>
<path d="M95.5538 30.7077L73.4449 38.8384L51.3359 30.7077L73.4449 22.5762L95.5538 30.7077Z" fill="#5BA0D4"/>
<path fill-rule="evenodd" clip-rule="evenodd" d="M73.4439 21L99.8381 30.7076L73.4439 40.4142L47.0498 30.7076L73.4439 21ZM55.6202 30.7075L73.4439 37.2623L91.2677 30.7075L73.4439 24.152L55.6202 30.7075Z" fill="black"/>
<path fill-rule="evenodd" clip-rule="evenodd" d="M74.8218 31.6195C74.8227 31.6211 74.8235 31.6227 73.4454 32.2615C72.0674 32.9003 72.0682 32.9019 72.069 32.9035L72.0706 32.9065L72.0735 32.9124L72.079 32.923L72.0881 32.9397C72.0932 32.949 72.0966 32.9547 72.0981 32.9571C72.1011 32.962 72.0969 32.9547 72.0846 32.9385C72.0599 32.906 72.0048 32.8409 71.9118 32.7665C71.7409 32.6298 71.3827 32.4124 70.7049 32.3616C69.2787 32.2546 66.2505 32.882 60.7238 37.0762C54.955 41.4541 50.6652 42.8908 47.6669 43.1279C46.1659 43.2465 45.0155 43.0616 44.2014 42.8159C43.7966 42.6937 43.4807 42.5583 43.251 42.4425C43.1362 42.3846 43.0432 42.3318 42.9715 42.2883C42.9357 42.2665 42.9052 42.247 42.88 42.2303C42.8673 42.2219 42.856 42.2143 42.8461 42.2074L42.8321 42.1977L42.8258 42.1933L42.8229 42.1912C42.8214 42.1902 42.82 42.1892 43.7318 41.0072C44.6435 39.8251 44.6422 39.8242 44.6408 39.8232L44.6382 39.8213L44.6332 39.8179L44.6246 39.8118L44.6119 39.8033C44.6056 39.7991 44.6034 39.7978 44.6056 39.7991C44.6099 39.8017 44.6312 39.8145 44.6699 39.834C44.7472 39.873 44.895 39.9395 45.1167 40.0064C45.5559 40.139 46.3105 40.2808 47.4165 40.1934C49.6323 40.0182 53.365 38.9113 58.8298 34.7641C64.5368 30.433 68.3429 29.2311 70.9426 29.4261C72.2777 29.5263 73.2304 29.9928 73.8671 30.5021C74.1779 30.7508 74.4008 30.9993 74.5531 31.1996C74.6294 31.2999 74.6885 31.3888 74.7326 31.4608C74.7547 31.4968 74.7731 31.5287 74.7882 31.5559C74.7957 31.5695 74.8024 31.5819 74.8082 31.5931L74.8164 31.6089L74.8201 31.6161L74.8218 31.6195Z" fill="black"/>
</svg>
