<svg width="68" height="91" viewBox="0 0 68 91" fill="none" xmlns="http://www.w3.org/2000/svg">
<path d="M55.8383 1.42352H12.1583C8.89508 1.42352 6.24976 4.06885 6.24976 7.33202V51.012C6.24976 54.2752 8.89508 56.9205 12.1583 56.9205H55.8383C59.1014 56.9205 61.7468 54.2752 61.7468 51.012V7.33202C61.7468 4.06885 59.1014 1.42352 55.8383 1.42352Z" fill="white"/>
<path d="M43.2609 19.9193H24.7651V38.4151H43.2609V19.9193Z" fill="#D1B036"/>
<path d="M61.7763 38.4636V19.9484H43.3195V38.4246H6.25977V51.0119C6.25977 54.2879 8.91177 56.9399 12.1878 56.9399H26.491V56.8814H43.2903V56.9009H55.858C59.134 56.9009 61.786 54.2489 61.786 50.9729V38.4734H61.7665L61.7763 38.4636Z" fill="#6AAA64"/>
<path d="M55.7894 0H12.2167C8.14117 0 4.82617 3.315 4.82617 7.3905V50.9632C4.82617 55.0387 8.14117 58.344 12.2167 58.344H55.7894C59.8649 58.344 63.1799 55.029 63.1799 50.9632V7.3905C63.1799 3.315 59.8649 0 55.7894 0ZM60.2159 7.3905V18.4665H44.7232V2.95425H55.7797C58.2269 2.95425 60.2062 4.94325 60.2062 7.3905H60.2159ZM23.2829 36.933H7.77067V21.4208H23.2829V36.933ZM26.2372 21.4208H41.7689V36.933H26.2372V21.4208ZM41.7689 39.8873V55.3995H26.2372V39.8873H41.7689ZM26.2372 18.4665V2.95425H41.7689V18.4665H26.2372ZM44.7232 21.4208H60.2159V36.933H44.7232V21.4208ZM12.2069 2.95425H23.2829V18.4665H7.77067V7.3905C7.77067 4.94325 9.75967 2.95425 12.1972 2.95425H12.2069ZM7.78042 50.9632V39.8873H23.2927V55.3995H12.2167C9.76942 55.3995 7.79017 53.4105 7.79017 50.973L7.78042 50.9632ZM55.7894 55.3897H44.7329V39.8775H60.2257V50.9535C60.2257 53.4008 58.2367 55.38 55.7992 55.38L55.7894 55.3897Z" fill="black"/>
<path d="M20.787 76.1668H19.812L17.0332 90.2263H12.4507L10.3545 81.1393L8.16075 90.2263H3.55875L0.975 76.1668H0V73.1443H6.97125V76.1668H5.733L7.02975 84.893L9.77925 73.1443H12.87L15.3757 84.893L16.9065 76.1668H15.5902V73.1443H20.7772V76.1668H20.787Z" fill="black"/>
<path d="M30.0201 84.425C30.0201 88.7832 28.0506 90.5187 24.8526 90.5187C21.6546 90.5187 19.6851 88.7637 19.6851 84.425C19.6851 80.0862 21.6058 78.2825 24.8526 78.2825C28.0993 78.2825 30.0201 80.2325 30.0201 84.425ZM26.0226 84.3762C26.0226 82.0167 25.7983 81.1587 24.8526 81.1587C23.9068 81.1587 23.6631 82.0167 23.6631 84.3762C23.6631 86.4432 23.7606 87.6425 24.8526 87.6425C25.9446 87.6425 26.0226 86.453 26.0226 84.3762Z" fill="black"/>
<path d="M39.0193 81.8902C36.533 81.7927 35.7238 82.5239 35.7238 85.1077V87.5159H37.0108V90.2167H30.8V87.5159H31.8238V81.2759H30.8V78.5752H35.4995L35.4703 80.4472C36.1333 79.2284 37.3033 78.3997 38.7365 78.3997H39.0095V81.8804L39.0193 81.8902Z" fill="black"/>
<path d="M50.6707 90.2263H45.7469V88.91C45.4252 89.7388 44.3527 90.4701 43.1437 90.4701C41.0962 90.4701 39.5654 89.3 39.5654 84.2105C39.5654 79.3843 41.2424 78.3411 43.1437 78.3411C44.1674 78.3411 45.1424 78.7506 45.7469 79.9206V75.8548H44.5769V73.1541H49.6664V87.5353H50.6609V90.236L50.6707 90.2263ZM45.8737 84.425C45.8737 82.1045 45.6592 81.3051 44.7329 81.3051C43.8067 81.3051 43.5629 82.1045 43.5629 84.425C43.5629 86.4433 43.5922 87.5451 44.7037 87.5451C45.8152 87.5451 45.8737 86.453 45.8737 84.425Z" fill="black"/>
<path d="M57.4957 90.2263H51.5482V87.5256H52.5427V75.8548H51.4507V73.1541H56.4719V87.5353H57.4957V90.236V90.2263Z" fill="black"/>
<path d="M67.9965 84.4737C67.9965 84.7662 67.977 85.1562 67.9477 85.4487H61.854C61.854 87.3012 62.244 87.9057 63.219 87.9057C63.921 87.9057 64.389 87.4962 64.6035 86.609H67.9185C67.2847 89.261 65.6955 90.509 63.1897 90.509C59.9722 90.509 57.876 89.1635 57.876 84.3957C57.876 79.8912 60.2842 78.2825 63.0435 78.2825C65.8027 78.2825 67.9867 79.94 67.9867 84.4737H67.9965ZM64.2427 83.6645V83.3525C64.2427 81.968 64.077 80.9637 63.0532 80.9637C61.8637 80.9637 61.8637 82.2312 61.8345 83.6645H64.2427Z" fill="black"/>
</svg>
