<svg width="375" height="812" viewBox="0 0 375 812" fill="none" xmlns="http://www.w3.org/2000/svg">
<path d="M371.795 50.5018C373.395 47.717 376.362 46 379.574 46H437.953C441.164 46 444.131 47.717 445.732 50.5018L474.938 101.329C476.539 104.115 476.528 107.544 474.909 110.32L445.741 160.322C444.133 163.078 441.183 164.773 437.992 164.773H379.535C376.344 164.773 373.393 163.078 371.785 160.322L342.617 110.32C340.998 107.544 340.987 104.115 342.588 101.329L371.795 50.5018Z" fill="#F5F51B"/>
<rect x="-88" y="94" width="110" height="109" fill="#6AAA64"/>
<rect x="-237" y="688" width="264" height="105" rx="20" fill="#E1D7FA"/>
<path d="M247.795 766.502C249.395 763.717 252.362 762 255.574 762H313.953C317.164 762 320.131 763.717 321.732 766.502L350.938 817.329C352.539 820.115 352.528 823.544 350.909 826.32L321.741 876.322C320.133 879.078 317.183 880.773 313.992 880.773H255.535C252.344 880.773 249.393 879.078 247.785 876.322L218.617 826.32C216.998 823.544 216.987 820.115 218.588 817.329L247.795 766.502Z" fill="#FFB327"/>
</svg>
